<?xml version="1.0" encoding="UTF-8"?>
<svg id="_レイヤー_2" data-name="レイヤー 2" xmlns="http://www.w3.org/2000/svg" viewBox="0 0 813.31 1258.82">
  <defs>
    <style>
      .cls-1 {
        fill: #c4a7bd;
      }

      .cls-2 {
        fill: #ac96a1;
      }

      .cls-3 {
        fill: #f2bd91;
      }

      .cls-4 {
        fill: #c6a8bf;
      }

      .cls-5 {
        fill: #c3a5bd;
      }

      .cls-6 {
        fill: #dabfc6;
      }

      .cls-7 {
        fill: #f59f88;
      }

      .cls-8 {
        fill: #fdbe9b;
      }

      .cls-9 {
        fill: #fecdc3;
      }

      .cls-10 {
        fill: #a894b3;
      }

      .cls-11 {
        fill: #f5a38b;
      }

      .cls-12 {
        fill: #a592b1;
      }

      .cls-13 {
        fill: #febf9d;
      }

      .cls-14 {
        fill: #ac97b6;
      }

      .cls-15 {
        fill: #f1c9a7;
      }

      .cls-16 {
        fill: #99614e;
      }

      .cls-17 {
        fill: #d3b8b6;
      }

      .cls-18 {
        fill: #83779a;
      }

      .cls-19 {
        fill: #b87956;
      }

      .cls-20 {
        fill: #e6746b;
      }

      .cls-21 {
        fill: #f9e1c5;
      }

      .cls-22 {
        fill: #fde1bd;
      }

      .cls-23 {
        fill: #b39ca6;
      }

      .cls-24 {
        fill: #b05455;
      }

      .cls-25 {
        fill: #fdc19f;
      }

      .cls-26 {
        fill: #bda3b8;
      }

      .cls-27 {
        fill: #815551;
      }

      .cls-28 {
        fill: #f0ada7;
      }

      .cls-29 {
        fill: #d7babf;
      }
    </style>
  </defs>
  <g id="_レイヤー_1-2" data-name="レイヤー 1">
    <g>
      <path class="cls-28" d="M536.14,1208.21c-9.17,9.73-17.12,19.89-18.84,33.65,12.6,1.36,25.04,2.31,37.69,2.7,2.69.08,5.39-.06,8.08,0,44.69.96,96.19.24,140-8.08,21.63-4.11,23.25-2.68,20.19-25.58,17.94,2.79,36.24,3.82,54.13,7.12,11.65,2.15,27.48,4.05,35.84,12.59,1.61,7.56-22.56,11.14-27.79,12.17-72.83,14.3-160.58,13.71-235.21,15.18-99.99,1.97-200.42.85-300.16-6.66-29.66-2.23-79.4-3.14-106.04-15.12-14.58-6.56,2.45-10.77,10.55-13.09,44.45-12.72,96-11.39,141.95-14.88-1.53,1.76-7.3,11.46-8.33,13.88-1.41,3.32-2.76,6.62-2.45,10.34,13.01,2.26,25.98,2.05,39.05,2.7,4.01.2,8.1-.14,12.12,0,43.18,1.51,86.06,1.6,129.24,0,6.36-.24,35.93,1.65,36.25-7.3.07-1.88-1.47-4.19-1.31-6.77.3-4.8,1.48-8.65,1.41-14.19,11.31,1.18,22.26,1.04,33.65,1.35Z"/>
      <path class="cls-21" d="M116.13,116.44c-.07,1.5.93,4.39-1.33,4.03,1.25-7.45-2.32-28.52,1.33-33.65-.35,9.82.48,19.81,0,29.62Z"/>
      <path class="cls-12" d="M751.54,801.65l-1.35-4.04,1.35,4.04Z"/>
      <path class="cls-5" d="M658.65,578.19c4.5,6.38,8.36,13.37,12.12,20.19l7.65,34.75c8.05,43.05,6.39,92.62-4.96,134.87-4.99.33-6.57-4.09-10.75-6.08-29.42-14.01-59.38,13.46-71.65,38.09-19.45-2.44-39.16-3.8-52.12,13.5-21.44,28.6-11.99,66.32,22.78,76.99-12.46,8.29-24.59,15.65-37.69,22.89l-7.54-10.69-14.01,5.31c1.95,7.4,3.77,11.44,12.12,10.76-17.18,11.44-21.59,20.12-39.04,4.04-22.26-20.52-41.59-53.25-53.85-80.77-6.78-15.23-12.24-31.29-17.5-47.12,2.38-1.68,4.4-3.65,6.73-5.38,5.14.51,8.02,5.71,12.24,8.63,9.06,6.28,18.65,11.63,29.49,14.25-1.09.12-7.92,2.39-8.09,3.4,4.26,15.39,6.51,11.5,18.65,5.83l.21-7.89c21.08-.04,43.79-12.78,45.66-35.8.14-1.7.18-8.69.14-10.55-.02-.82-2.43-.59-2.7-1.68-1.23-4.88-.27-7.57-2.71-13.9-1.88-4.86-6.61-14.52-9.42-18.85,10.03-7.92,29.33-15.12,37.69-24.23,2.58,3.6,7.84,3.98,10.77,5.38.16.07-.86,1.73,1.83,2.92,8.02,3.56,43.66,11.79,53,12.92,18.44,2.23,38.97-.59,49.09-17.59,20.24-34.02-10.6-77.09-49.18-64.12-6.79-16.83-25.4-24.56-42.63-24.33.58-3.26,0-7.94.8-11.38,2.88-12.56,8.71-24.64,11.31-37.08-12.81.4-17.25,14.43-20.08,25-1.91,7.14-5.19,22.76-5.39,29.73s6.39,16.42,5.06,21.02c-1.03,3.55-6.64,4.68-8.25,8.09-1.08,2.29-.38,15.19-.95,15.77-3.17,3.14-12.35-8.21-12.11-1.35-6.13-2.4-12.2-6.24-18.78-6.79,1.76-15.4-6.95-32.61-18.28-42.98-4.41-4.03-15.43-11.42-20.83-13.5,6.79-6.16,12.08-14.84,18.83-20.88,36.55-32.71,105.71-34.86,150.76-21.5l21.57,10.07ZM542.87,641.47h-2.68v1.32h2.68v-1.32ZM494.41,859.55c-7.14.84-12.28-.51-18.84-2.7.26,6.74.79,12.25-4.05,17.48,7.72-1.55,13.12,4.05,20.18,5.39.36-6.85-1.55-14.21,2.7-20.17Z"/>
      <path class="cls-17" d="M713.84,1165.13c-41.34,9.56-94.25,14.26-136.7,14.75-5.05.06-9.53,1.85-15.43,1.4-2.91-.22-11.64-2.36-14.4-3.77-2.5-1.27-7.43-6.04-9.19-8.31-7.23-9.32-8.89-21.56-15.45-31-.03-7.07-7.18-30.33-9.42-39.04,5.84-5.16,10.36-11.73,16.15-16.98,1.75-1.59,3.31-.74,3.44-.86.61-.58-.85-2.55-.15-3.69.9-1.49,3.64-1.75,5.17-2.74.87-.57.85-2.4,1.91-2.63,4.58-1.02,11.97.5,17.22-.04,62.86-6.58,62.05-59.48,83.43-106.38l93.62-25.52c-1.18,28.48-9.03,55.45-11.95,82.96-3.11,29.36,7.88,56.85,13.98,85.3,1.63,7.6,8.95,38.15,6.69,43.07-3.28,7.15-21.45,11.76-28.91,13.48Z"/>
      <path class="cls-15" d="M611.53,925.5c-19.35,12.92-38.07,10.69-53.78,18.24-2.53,1.22-6.06,6.51-8.85,8.65-34.23,26.19-77.16,36.76-115.74,12.23-34.21,14.48-73.57,8.25-102.28-14.93-7.47-6.03-13.38-13.55-20.42-20-21.04,11.25-49.28,10.68-69.14-2.84-19.19-13.07-22.93-39.24-20.19-60.58,7.81,3.16,29.42,10.77,37.02,10.77h40.39c.45,0,2.25-1.26,3.98-1.4,4.24-.32,8.6.3,12.84.05,1.2,12.99,4.13,10.47,10.01,17.59,28.11,34.09,34.62,47.45,82.88,48.37,21.75.41,33.95.52,52.5-10.77.48-.29,2.57.16,3.94-.72,3.55-2.3,5.63-7.33,10.87-7.36,17.45,16.08,21.86,7.4,39.04-4.04,6.45-.53,6.15-3.58,9.42-5.38,13.1-7.23,25.23-14.6,37.69-22.89,25.88-17.21,53.81-35.67,75.39-57.89,14.64,32.51,4.28,72.95-25.58,92.89Z"/>
      <path class="cls-22" d="M611.53,930.89c0,10.97-.35,25.7-2.69,36.35-1.3,5.93-6.92,20.6-10.5,26.52-2.3,3.81-8.34,8.97-9.69,12.52-21.33,11.35-40.59,11.08-60.58-2.69-3.22-2.22-7.78-8.63-12.12-10.77-1.83-.9-1.43-1.52-4.47-1.3-6.22.44-14.56,3.57-21.73,4.05-10.32.7-20.71-.37-30.93-1.48l-2.11,9.5c-1.03.14-7.2,12.4-9.42,14.81-15.09,16.35-52.06,17.72-68.66,2.69-3.44-3.11-10.52-13.76-13.49-18.14-2.54-3.74-5.51-8.44-6.72-12.81-2.09-.88-3.16,1.05-4.02,1.34-7.61,2.6-14.02,8.19-21.54,10.77-24.41,8.37-53.65,4.67-72.69-13.46-13.41-12.76-18.84-31.24-20.09-49.35-.2-2.88.19-9.76,1.25-12.57,19.86,13.53,48.11,14.1,69.14,2.84,7.04,6.46,12.94,13.97,20.42,20,28.7,23.18,68.07,29.41,102.28,14.93,38.58,24.53,81.51,13.96,115.74-12.23,2.79-2.14,6.32-7.43,8.85-8.65,15.71-7.55,34.43-5.33,53.78-18.24,0,1.79,0,3.59,0,5.38Z"/>
      <path class="cls-23" d="M354.41,991.47c.86-.29,1.93-2.22,4.02-1.34,1.21,4.37,4.18,9.07,6.72,12.81,2.97,4.38,10.05,15.03,13.49,18.14-1.34,28.62,14.05,52.74,45.76,42.39,7.94-2.59,12.05-7.2,16.17-14.12.47-.39,1.04-.81,1.35-1.35.35-.62,1.16-2.17,1.35-2.69,2.99-2.59,1.5-6.54,6.72-5.4l-2.67-4.02,9.4,4.03c.49-4.38.16-7.38-2.69-10.75,5.34-1.2,5.23,4.49,8.89,6.58,2.39,1.36,6.7,1.11,7.95,2.82l3.35,9.43-8.06-1.34,1.33,8.07c-6.82-1.75-13.41-1.75-14.68,6.62,3.63.87,6.33,5.78,6.71,9.48l7.86.18.13,6.61c4.86.38,7.3-2.23,5.38-6.72l2.7,5.38,6.69-3.39c-4.46,4.89,4.11,10.24,4.1,10.89,0,1.73-2.08,3.9-1.27,6.41.5,1.55,3.54,2.36,4.97,4.57,3.27,5.08,2.95,13.03,3.36,13.61s3.53-.66,2.33,2.9c-1.6-.16-3.84.52-5.15-.24-2.41-1.4-1.92-15.49-8.18-10.35-.69.57,1.11,5.06-2.13,3.87-.5-.18-2.09-10.81-4.72,1.33,5.3-.8,5.57,6.5,12.11,5.41l-.05,2.65-2.64,2.72,4.59-1.39c2.48,5.29,7.5,5.52,12.9,5.45l-4.09,7.43,4.08,3.35-2.67,6.7,12.1-4.03-5.05,5.32c-4.14,1.33-7.75,5-8.39,9.48l8.07-1.33-1.37,3.33,2.71.68.67-2.68c5.18,6.98,10.29-8.29,11.45,4.04-.07.44.08.91,0,1.35-5.25-.67-3.3,4.57-9.4,2.01l2.16,3.26,7.24.12c-.72,3.99-.93,6.78-4.69,9.45-2.25,1.6-11.58,3.94-14.16,4.01-9.42.28-23.42-1.05-33.65-1.35-7.2-13.18-22.1-25.08-34.58-33.41-26.42-17.63-66.65-33.93-96-15.06-1.92-44.51,7.84-88.84,17.5-131.93ZM451.33,1052.06l-2.67,9.41c3.36-.96,1.61-6.89,2.67-9.41ZM473.55,1078.97v1.35c.87-.45.87-.9,0-1.35ZM482.64,1084.33c0-.92-.74-1.66-1.66-1.66s-1.66.74-1.66,1.66.74,1.66,1.66,1.66,1.66-.74,1.66-1.66Z"/>
      <path class="cls-12" d="M750.19,796.27c-12.44,3.65-26.01,10.03-33.46,21.06-2.97,4.39-8.39,21.47-9.6,22.71-1.88,1.93-9.87,2.54-13.49,4.01-7.83,3.18-20.32,14.45-23.45,22.32-4.7,11.81-3.93,34.78,8.44,41.1l12.32,11.29c-11.52,3.39-22.92,7.23-34.55,10.27l-42.18,4.54c-.09-.88.12-1.81,0-2.69h-2.69c0-1.8,0-3.59,0-5.39,29.86-19.93,40.22-60.38,25.58-92.89,20.22-20.82,28.76-36.37,36.35-64.62,11.35-42.25,13.01-91.82,4.96-134.87l-7.65-34.75c33.64,61.07,60.14,130.99,79.43,197.89Z"/>
      <path class="cls-26" d="M750.19,796.27v1.35l1.35,4.04c5.59,15.1,9.8,32.11,13.04,48.21,1.72,8.54,6.01,23.62,4.17,31.61-2.32,10.1-26.97,20.33-36.06,23.84-13.52,5.22-27.83,9.38-41.73,13.46l-12.32-11.29c-12.37-6.32-13.13-29.29-8.44-41.1,3.13-7.87,15.62-19.14,23.45-22.32,3.62-1.47,11.6-2.08,13.49-4.01,1.21-1.24,6.64-18.32,9.6-22.71,7.45-11.04,21.02-17.41,33.46-21.06Z"/>
      <path class="cls-13" d="M466.14,1235.13c-43.17,1.6-86.06,1.51-129.24,0,1.55-2.24,2.75-4.78,4.73-6.72s31.84-23.12,17.47-24.31c-5.86-.49-37.89,19.99-34.31,31.03-13.07-.65-26.03-.43-39.05-2.7-.31-3.72,1.04-7.02,2.45-10.34,1.03-2.42,6.8-12.13,8.33-13.88,11.07-12.7,35.61-25.5,48.46-39.04,20.77,3.69,39.98,14.49,58.31,24.48,22.15,12.07,43.01,25.97,62.84,41.49Z"/>
      <path class="cls-7" d="M467.49,1171.86c10.23.29,24.24,1.63,33.65,1.35.2,10.11-.25,20.28-.05,30.4.03,1.74,1.4,3.08,1.4,3.26.07,5.55-1.1,9.4-1.41,14.19-.16,2.59,1.37,4.89,1.31,6.77-.31,8.95-29.89,7.07-36.25,7.3-19.83-15.52-40.69-29.42-62.84-41.49-18.33-9.99-37.54-20.79-58.31-24.48,3.15-3.31,5.25-9.38,9.42-12.12,27.52,10.68,82.95,13.94,113.08,14.81Z"/>
      <path class="cls-7" d="M713.84,1165.13c2.94,15.14,7.38,30.48,9.42,45.77,3.05,22.9,1.44,21.47-20.19,25.58.72-3.27-1.66-2.78-3.54-3.79-44.25-23.77-89.24-44.64-140.5-47.36.97-1.29,1.77-2.72,2.69-4.04,5.9.45,10.37-1.34,15.43-1.4,42.44-.49,95.36-5.2,136.7-14.75Z"/>
      <path class="cls-3" d="M203.63,646.84c.51,11.68,3.61,26.03,13.46,33.65-2.12.74-2.86,2.41-4.04,4.04-11.9,16.42-31.97,43.71-39.04,61.93-30.55,8.4-56.31-16.72-43.08-47.12,7.21-16.56,38.4-36.04,54.29-44.66,5.59-3.03,12.08-6.83,18.41-7.85Z"/>
      <path class="cls-17" d="M336.91,1123.4c29.35-18.87,69.58-2.57,96,15.06,12.48,8.33,27.38,20.22,34.58,33.41-30.13-.86-85.56-4.13-113.08-14.81-17.9-6.95-16.76-16.58-17.5-33.65Z"/>
      <path class="cls-3" d="M332.87,1002.24c-4.99,24.47-12.78,46.03-42.2,44.3-29.32-1.73-31.44-35.02-30.49-57.76,19.05,18.13,48.28,21.84,72.69,13.46Z"/>
      <path class="cls-21" d="M336.91,567.42c27.44-1.83,53.15,4.88,71.32,26.28,2.57,3.02,7.43,13.04,10.41,13.91,15.9-2.69,33.52-3.03,48.85,2.89,5.39,2.08,16.42,9.47,20.83,13.5,11.33,10.36,20.04,27.57,18.28,42.98,6.58.55,12.64,4.39,18.78,6.79,3.57,1.4,11.34,1.34,12.19,6.08.28,1.56-2.42,22.64-3.04,25.32-.46,1.99-1.28,2.36-2.41,3.6-8.36,9.11-27.66,16.31-37.69,24.23-11-16.95-45.04-47.31-64.32-53.48-11.08-3.54-19.17-4.01-28.57,3.67-1.2.98-1.76,1.11-2.69,2.69s-1.55,1.3-1.35,4.04c-2.06.03-3.41.68-4.04,2.69-.13.4.11.92,0,1.35-2.13,1.27-2.21,3.27-2.69,5.38-3.78-3.08-6.34.44-9.42,1.35-25.7,7.57-65.01,6.43-86.8-10.8-3.33-2.63-11.81-13.34-14.8-13.41-9.98,4.17-18.45,9.97-29.67,10.71-8.64.57-26.13-1.41-32.97-6.7-9.85-7.62-12.95-21.97-13.46-33.65-1.75-40.3,29.53-70.77,70-67.31,7.07.6,12.81,3.68,19.47,5.43,12.71-11.21,26.91-16.42,43.81-17.54Z"/>
      <path class="cls-29" d="M673.46,768c-7.59,28.25-16.13,43.8-36.35,64.62-21.58,22.21-49.5,40.68-75.39,57.89-34.77-10.67-44.22-48.4-22.78-76.99,12.97-17.3,32.67-15.94,52.12-13.5,12.27-24.63,42.22-52.09,71.65-38.09,4.18,1.99,5.76,6.41,10.75,6.08Z"/>
      <path class="cls-3" d="M494.41,733c2.81,4.33,7.55,13.99,9.42,18.85,3.61,17.68-1.05,32.06-15.51,43.05-15.93,12.1-38.96,6.78-54.92-2.9-3.51-2.13-11-10.46-14.37-9.18-.5-2.79-.69-7.03-2.08-9.4-1.18-2.01-3.63-2.09-4.72-3.67-10.25-14.72-23.24-58.78-18.78-75.79.11-.43-.13-.95,0-1.35h5.38c.58-1.57-1.33-2.54-1.34-2.69-.2-2.74.39-2.42,1.35-4.04l4.04-1.36-1.34-1.33c9.4-7.68,17.49-7.21,28.57-3.67,19.27,6.16,53.32,36.53,64.32,53.48Z"/>
      <path class="cls-29" d="M554.99,623.96c17.23-.23,35.84,7.49,42.63,24.33,38.58-12.98,69.42,30.1,49.18,64.12-10.12,17.01-30.65,19.82-49.09,17.59-9.35-1.13-44.98-9.36-53-12.92-2.7-1.2-1.68-2.85-1.83-2.92,1.43.03,3.65-2.63,4.04-2.69,14.56-2.46,46.74,7.87,49.81-10.76-12.65-3.09-27.39-5.09-40.38-4.05l-9.5-2.17c1.84-21.67,2.77-43.8,6.05-65.27.34-2.21,1.92-4.21,2.11-5.25Z"/>
      <path class="cls-10" d="M525.38,673.77c-.24-6.86,8.94,4.49,12.11,1.35.57-.58-.13-13.49.95-15.77,1.61-3.41,7.22-4.54,8.25-8.09,1.33-4.6-5.25-14.06-5.06-21.02s3.47-22.59,5.39-29.73c2.83-10.57,7.27-24.6,20.08-25-2.6,12.44-8.43,24.52-11.31,37.08-.79,3.44-.21,8.12-.8,11.38-.19,1.04-1.77,3.05-2.11,5.25-3.28,21.47-4.22,43.59-6.05,65.27l9.5,2.17c-1.63.13-6.6,3.73-10.78,1.36l1.03,2.47-2.37.87c4.45,2.61.09,6.48,2.69,10.11-.39.07-2.61,2.73-4.04,2.69-2.93-1.4-8.19-1.79-10.77-5.38,1.14-1.24,1.95-1.61,2.41-3.6.62-2.68,3.32-23.76,3.04-25.32-.85-4.74-8.62-4.69-12.19-6.08Z"/>
      <path class="cls-12" d="M503.84,751.84c2.45,6.33,1.48,9.02,2.71,13.9.27,1.09,2.68.86,2.7,1.68.04,1.86,0,8.85-.14,10.55-1.87,23.02-24.58,35.76-45.66,35.8-3.05,0-6.4-1.84-10.77-1.35-10.85-2.62-20.44-7.98-29.49-14.25-4.22-2.92-7.1-8.13-12.24-8.63,1.59-1.19,2.35-3.79,2.69-4.04.16-.11,2.46-.1,3.91-.73.91-.4,1.27-1.88,1.48-1.96,3.37-1.28,10.86,7.05,14.37,9.18,15.96,9.68,38.99,15,54.92,2.9,14.46-10.99,19.12-25.37,15.51-43.05Z"/>
      <path class="cls-15" d="M413.64,785.5c-.35.25-1.1,2.85-2.69,4.04-2.33,1.74-4.35,3.71-6.73,5.38-.06.04-.7-.94-1.32-.55-6.66,4.25-10.55,10.04-20.22,8.62,7.38-23.28,6.8-42.03,5.95-66.02-.09-2.68-1.15-2.27,2.13-3.98,3.3,18.65,11.32,37.64,22.89,52.5Z"/>
      <path class="cls-3" d="M494.41,859.55c-4.25,5.96-2.34,13.33-2.7,20.17-7.06-1.34-12.47-6.94-20.18-5.39,4.84-5.23,4.3-10.74,4.05-17.48,6.56,2.19,11.7,3.54,18.84,2.7Z"/>
      <path class="cls-3" d="M524.03,913.39c-3.27,1.81-2.97,4.86-9.42,5.38-8.35.68-10.17-3.36-12.12-10.76l14.01-5.31,7.54,10.69Z"/>
      <path class="cls-3" d="M463.45,813.77l-.21,7.89c-12.14,5.66-14.4,9.55-18.65-5.83.16-1.01,7-3.28,8.09-3.4,4.37-.49,7.71,1.35,10.77,1.35Z"/>
      <rect class="cls-10" x="540.19" y="641.47" width="2.68" height="1.32"/>
      <path class="cls-2" d="M511.91,994.16c1.83,11.04-4.28,21.93-6.02,31.65-4.71,26.4.98,48.6,7.36,73.36,2.24,8.71,9.4,31.97,9.42,39.04.02,5.12-1.93,10.11-2.69,14.81-1.16-12.33-6.27,2.94-11.45-4.04l-.67,2.68-2.71-.68,1.37-3.33-8.07,1.33c.64-4.48,4.26-8.15,8.39-9.48l5.05-5.32-12.1,4.03,2.67-6.7-4.08-3.35,4.09-7.43c-5.4.07-10.42-.16-12.9-5.45l-4.59,1.39,2.64-2.72.05-2.65c-6.54,1.1-6.82-6.2-12.11-5.41,2.63-12.14,4.22-1.51,4.72-1.33,3.24,1.19,1.44-3.3,2.13-3.87,6.26-5.14,5.77,8.95,8.18,10.35,1.31.76,3.55.08,5.15.24,1.2-3.56-1.92-2.33-2.33-2.9s-.09-8.53-3.36-13.61c-1.42-2.2-4.46-3.02-4.97-4.57-.82-2.52,1.26-4.68,1.27-6.41,0-.65-8.56-6-4.1-10.89l-6.69,3.39-2.7-5.38c1.91,4.49-.52,7.09-5.38,6.72l-.13-6.61-7.86-.18c-.38-3.7-3.07-8.6-6.71-9.48,1.27-8.37,7.86-8.37,14.68-6.62l-1.33-8.07,8.06,1.34-3.35-9.43c-1.25-1.7-5.56-1.45-7.95-2.82-3.66-2.08-3.55-7.77-8.89-6.58,2.85,3.37,3.17,6.37,2.69,10.75l-9.4-4.03,2.67,4.02c-5.22-1.14-3.73,2.81-6.72,5.4,2.89-8.12,4.29-18.32,4.04-26.92,2.22-2.41,8.39-14.67,9.42-14.81.09-.01.68,1.24,1.32,1.36l2.27-8.15c17.41,1.47,34.45.99,51.61-2.64ZM457.39,1057.43v1.35c.87-.45.87-.9,0-1.35Z"/>
      <path class="cls-23" d="M734.04,940.31l-93.62,25.52c-21.38,46.9-20.57,99.8-83.43,106.38-5.24.55-12.64-.98-17.22.04-1.07.24-1.04,2.07-1.91,2.63-1.52.99-4.27,1.25-5.17,2.74-.69,1.14.76,3.12.15,3.69-.13.12-1.69-.73-3.44.86-5.78,5.25-10.31,11.82-16.15,16.98-6.38-24.76-12.07-46.95-7.36-73.36,1.74-9.72,7.84-20.61,6.02-31.65,1.42-.3,2.8-.54,4.04-1.35,4.34,2.14,8.9,8.55,12.12,10.77-1.92,19.08,6.48,44.11,28.95,44.53,14.49.27,23.87-8.82,27.97-21.94,2.01-6.46,1.72-14.79,3.66-19.9,1.35-3.55,7.39-8.72,9.69-12.52,3.58-5.92,9.2-20.59,10.5-26.52,1.83,2.92,1.69-1.35,1.98-2.72.81-3.89,1.05-13.84,4.74-13.45l-2.67-3.32,4.69.65c5.44-5.01-1.55-2.43-.67-6.72h4.04s-2.72-5.38-2.72-5.38l-4,4.02c-.19-2.21.21-4.52-.01-6.72l42.18-4.54c11.64-3.04,23.03-6.89,34.55-10.27,13.9-4.09,28.21-8.24,41.73-13.46,1.44,11.56,1.83,23.32,1.35,35ZM614.9,953.77v1.35c.87-.45.87-.9,0-1.35ZM507.2,1045.32v1.35c.87-.45.87-.9,0-1.35Z"/>
      <g>
        <path class="cls-13" d="M404.22,794.92c5.26,15.83,10.72,31.88,17.5,47.12-2.34.84-.27,4.29.32,5.73,11.61,28.27,20.18,58.43,38.72,83.12-18.56,11.29-30.75,11.18-52.5,10.77-.69-3.69,3.6-2.44,4.13-6.06.28-1.94-.56-6.39-2.34-7.51-16.71-4.63-36.62,5.1-51.14-7.09-1.15-.97-2.19-3.45-3.75-4.99-3.9-3.84-7.7-5.26-10.17-11.38,14.81-1.81,31.7,4.06,45.16-4.67l.47-3.18c-1.96-7.63-29.34-5.72-35.59-6.22-4.53-.36-19.11-1.91-21.82-4.44-5.06-4.72-8.66-23.9-4.2-30.44,15.67,1.63,31.34.75,46.94-1.54-4.49-8.25-14.17-8.87-22.6-9.7-3.94-6.73-6.78-13.21-5.67-21.25,10.67-9.43,15.53-7.88,29.64-8.73.82-.49,4.82-9.77,5.36-11.47,9.67,1.42,13.56-4.38,20.22-8.62.62-.4,1.26.59,1.32.55Z"/>
        <path class="cls-7" d="M475.57,922.81c-5.24.03-7.32,5.06-10.87,7.36-1.37.88-3.46.43-3.94.72-18.54-24.69-27.11-54.85-38.72-83.12-.59-1.44-2.66-4.89-.32-5.73,12.26,27.52,31.59,60.25,53.85,80.77Z"/>
        <path class="cls-11" d="M347.68,823.19c-1.11,8.04,1.73,14.51,5.67,21.25,8.43.83,18.11,1.45,22.6,9.7-15.6,2.29-31.27,3.17-46.94,1.54-4.46,6.54-.86,25.72,4.2,30.44,2.71,2.53,17.29,4.08,21.82,4.44,6.26.5,33.64-1.41,35.59,6.22l-.47,3.18c-13.45,8.73-30.34,2.86-45.16,4.67,2.47,6.12,6.28,7.54,10.17,11.38,1.56,1.54,2.59,4.02,3.75,4.99,14.52,12.2,34.44,2.46,51.14,7.09,1.78,1.13,2.62,5.57,2.34,7.51-.53,3.61-4.83,2.37-4.13,6.06-48.26-.92-54.77-14.28-82.88-48.37-5.87-7.12-8.8-4.6-10.01-17.59-.58-6.29-.57-12.54,2.92-17.95,1.27-1.96,6.93-7.21,8.76-7.44s3.14,2.56,4.92,2.32c1.57-.21,4.69-4.42,7.63-3.88-5.79-10.47.17-18.57,8.08-25.56Z"/>
      </g>
      <path class="cls-11" d="M393.45,693.96c-4.46,17,8.53,61.07,18.78,75.79,1.1,1.58,3.55,1.66,4.72,3.67,1.39,2.37,1.58,6.61,2.08,9.4-.21.08-.57,1.56-1.48,1.96-1.44.63-3.74.62-3.91.73-11.57-14.86-19.58-33.85-22.89-52.5-1.85-10.44-2.41-23.12,0-33.65.48-2.11.56-4.12,2.69-5.38Z"/>
      <path class="cls-3" d="M443.26,1045.32c-.19.52-1,2.07-1.35,2.69-.46.41-1.03.82-1.35,1.35-4.12,6.92-8.22,11.53-16.17,14.12-31.71,10.34-47.09-13.77-45.76-42.39,16.6,15.03,53.57,13.66,68.66-2.69.25,8.6-1.15,18.8-4.04,26.92Z"/>
      <path class="cls-3" d="M588.65,1006.28c-1.95,5.11-1.65,13.44-3.66,19.9-4.09,13.12-13.47,22.21-27.97,21.94-22.47-.41-30.87-25.44-28.95-44.53,19.99,13.77,39.25,14.04,60.58,2.69Z"/>
      <path class="cls-2" d="M611.53,930.89h2.69c.12.89-.09,1.81,0,2.69.22,2.2-.17,4.51.01,6.72l4-4.02,2.72,5.37h-4.04c-.88,4.3,6.11,1.72.67,6.73l-4.69-.65,2.67,3.32c-3.69-.39-3.93,9.56-4.74,13.45-.29,1.37-.15,5.64-1.98,2.72,2.34-10.64,2.69-25.38,2.69-36.35Z"/>
      <path class="cls-18" d="M515.95,992.81c-1.24.8-2.62,1.05-4.04,1.35-17.16,3.62-34.2,4.1-51.61,2.64l-2.27,8.15c-.64-.13-1.22-1.38-1.32-1.36l2.11-9.5c10.22,1.11,20.6,2.18,30.93,1.48,7.17-.48,15.51-3.61,21.73-4.05,3.04-.21,2.64.4,4.47,1.3Z"/>
      <path class="cls-13" d="M559.03,1185.32c51.26,2.72,96.25,23.59,140.5,47.36,1.88,1.01,4.26.53,3.54,3.79-43.81,8.32-95.32,9.04-140,8.08,3.83-5.02,6.54-10.48,10.36-15.8,3.06-4.25,10.34-7.97,8.32-14.3l-3.18-2.21c-9.86,8.68-22.51,18.08-23.58,32.3-12.65-.39-25.08-1.34-37.69-2.7,1.72-13.76,9.67-23.91,18.84-33.65,6.94-7.37,16.08-13.87,22.89-22.89Z"/>
      <path class="cls-11" d="M336.91,1235.13c-4.02-.14-8.1.2-12.12,0-3.57-11.04,28.45-31.52,34.31-31.03,14.37,1.19-15.58,22.46-17.47,24.31s-3.17,4.49-4.73,6.72Z"/>
      <path class="cls-7" d="M554.99,1244.55c1.07-14.22,13.72-23.62,23.58-32.3l3.18,2.21c2.02,6.33-5.26,10.05-8.32,14.3-3.82,5.32-6.53,10.78-10.36,15.8-2.69-.06-5.39.08-8.08,0Z"/>
      <path class="cls-2" d="M519.99,1154.36c-.29,1.63.29,3.76,0,5.38l-7.24-.12-2.16-3.26c6.1,2.57,4.14-2.68,9.4-2.01Z"/>
      <path class="cls-2" d="M451.33,1052.06c-1.06,2.52.69,8.45-2.67,9.41l2.67-9.41Z"/>
      <circle class="cls-2" cx="480.98" cy="1084.33" r="1.66"/>
      <path class="cls-2" d="M440.56,1049.35c.32-.53.89-.94,1.35-1.35-.3.54-.87.95-1.35,1.35Z"/>
      <path class="cls-2" d="M473.55,1078.97c.87.45.87.9,0,1.35v-1.35Z"/>
      <path class="cls-2" d="M614.9,953.77c.87.45.87.9,0,1.35v-1.35Z"/>
      <path class="cls-2" d="M507.2,1045.32c.87.45.87.9,0,1.35v-1.35Z"/>
      <path class="cls-11" d="M397.49,689.92c.01.15,1.92,1.12,1.34,2.68h-5.38c.63-2,1.98-2.65,4.04-2.68Z"/>
      <path class="cls-11" d="M401.52,683.19l1.34,1.33-4.04,1.36c.93-1.58,1.49-1.71,2.69-2.69Z"/>
      <path class="cls-26" d="M556.34,696.65c12.99-1.04,27.74.97,40.38,4.05-3.07,18.62-35.25,8.3-49.81,10.76-2.6-3.63,1.76-7.49-2.69-10.11l2.37-.87-1.03-2.47c4.18,2.37,9.15-1.23,10.78-1.36Z"/>
      <path class="cls-23" d="M457.39,1057.43c.87.45.87.9,0,1.35v-1.35Z"/>
      <g>
        <path class="cls-22" d="M213.06,684.53c.19,14.18,25.46,19.63,36.84,18.74,10.04-.78,21-7.34,30.98-9.01l15.33,11.7c7.32.1,13.22,5.56,20.19,7.82,20.21,6.56,50.58,7,67.5-7.3l-2.57-5.8c3.08-.91,5.64-4.43,9.42-1.35-2.41,10.54-1.85,23.21,0,33.65-3.28,1.72-2.22,1.3-2.13,3.98.85,23.99,1.43,42.74-5.95,66.02-.54,1.69-4.54,10.97-5.36,11.47-14.11.85-18.97-.7-29.64,8.73-7.91,6.99-13.86,15.08-8.08,25.56-2.94-.54-6.07,3.67-7.63,3.88-1.78.23-3.11-2.54-4.92-2.32s-7.49,5.48-8.76,7.44c-3.49,5.4-3.5,11.66-2.92,17.95-4.24.25-8.6-.37-12.84-.05-1.73.13-3.53,1.4-3.98,1.4h-40.39c-7.6,0-29.21-7.61-37.02-10.77-53.38-21.56-67.78-66.57-47.12-119.81,7.07-18.21,27.14-45.51,39.04-61.93ZM214.4,755.88c13.13,8.2,29.06,4.58,41.73-2.69,6.18-3.55,8.31-10.89.93-13.84-3.88-1.55-12.78,3.68-17.87,4.3s-12.85.89-16.3-2.99c-3.7-4.15-2.12-11.12-11.87-10.48-14.26.93-8.31,22.97,3.38,25.7ZM307.29,754.54c-4.17-4.33-7.49-13.37-14.76-10.11-13.64,12.62,10.65,28.31,22.52,29.96,10.63,1.47,23.21-1.01,29.23-7.56l3.38,1.19c.73-5.76,6.44-6.02,3.87-13.29-2.92-1.39-6.03-1.74-9.23-1.54-10.19.63-23.83,12.19-35,1.35ZM209.35,806.02c-8.13,12.16,15.11,19.34,17.81,25.28,2.2,4.82,1.2,13.58,2.7,18.83l4.29,2.38c12.24-1.12,4.48-15.73,7.84-21.26,1.78-2.93,18.33-7.71,19.56-15.52,2.16-13.67-21.5-1.2-26.25,3.45-7.66-1.09-18.47-20.61-25.94-13.15Z"/>
        <path class="cls-15" d="M381.33,700.69l2.57,5.8c-16.92,14.29-47.29,13.85-67.5,7.3-6.97-2.26-12.87-7.72-20.19-7.82l-15.33-11.7c-9.98,1.67-20.94,8.23-30.98,9.01-11.38.89-36.65-4.56-36.84-18.74,1.18-1.63,1.92-3.29,4.04-4.04,6.84,5.29,24.33,7.27,32.97,6.7,11.22-.74,19.69-6.55,29.67-10.71,2.99.06,11.47,10.77,14.8,13.41,21.79,17.23,61.1,18.37,86.8,10.8Z"/>
        <path class="cls-7" d="M209.35,806.02c7.47-7.46,18.28,12.06,25.94,13.15,4.76-4.64,28.42-17.12,26.25-3.45-1.24,7.82-17.78,12.6-19.56,15.52-3.36,5.53,4.41,20.14-7.84,21.26l-4.29-2.38c-1.5-5.25-.5-14.01-2.7-18.83-2.7-5.93-25.94-13.11-17.81-25.28Z"/>
        <path class="cls-27" d="M307.29,754.54c5.03,5.21,7.35,4.4,12.67,8.15,7.72-3.09,16.42-1.8,22.33-9.5,3.2-.2,6.32.14,9.23,1.54,2.57,7.27-3.14,7.53-3.87,13.29l-3.38-1.19c-6.02,6.55-18.6,9.03-29.23,7.56-11.87-1.64-36.15-17.34-22.52-29.96,7.27-3.26,10.59,5.78,14.76,10.11Z"/>
        <path class="cls-27" d="M214.4,755.88c-6.56-4.1-9.93-13.94-9.4-21.49,14.44-5.7,11.09,4.88,18.15,9.41,2.02,1.29,4.19.55,6.35,1.34.99.37,1.03,2.44,1.99,2.65,5.88,1.28,22.18-9.68,27.14-6.53,2.91,4.87.47,7.99-2.49,11.92-12.67,7.27-28.6,10.89-41.73,2.69Z"/>
        <path class="cls-21" d="M342.29,753.19c-5.91,7.69-14.62,6.41-22.33,9.5-5.32-3.75-7.64-2.94-12.67-8.15,11.17,10.85,24.81-.71,35-1.35Z"/>
        <path class="cls-21" d="M214.4,755.88c-11.69-2.73-17.64-24.77-3.38-25.7,9.76-.64,8.18,6.33,11.87,10.48,3.45,3.88,11.45,3.59,16.3,2.99,5.09-.62,13.99-5.85,17.87-4.3,7.37,2.94,5.25,10.29-.93,13.84,2.97-3.93,5.41-7.05,2.49-11.92-4.95-3.15-21.26,7.81-27.14,6.53-.96-.21-1-2.28-1.99-2.65-2.16-.8-4.34-.05-6.35-1.34-7.07-4.53-3.71-15.12-18.15-9.41-.53,7.55,2.84,17.39,9.4,21.49Z"/>
      </g>
      <g>
        <path class="cls-4" d="M464.8.67c134.49,6.16,230.88,59.1,309.63,166.93-5.55,8.06-13.91,9.24-23.45,7.95-15.78-2.13-61.03-47.91-79.51-59.16-6.16-1.65-11.67-9.04-11.47,2.74-19.28-18.89-56.07-26.97-76.77-6.09-17.69,17.84-.43,25.68,10.02,39.87,5.96,8.1,13.5,18.55,18.84,26.93,22.3,35,34.16,84.09,89.2,59.34l11.21-8.31c9.16,25.05,19.78,51.28,26.92,76.73,5.97,21.28,10.57,45.62,14.81,67.31-3.22,5.43-8.07,8.36-12.12,12.12.76-8.81.18-13.11-4.54-20.36-6.04-9.28-23.42-22.14-34.14-23.73-7.42-1.1-21.93,2.1-21.77,10.93.38,20.09,11.53,46.29,11.99,66.82.05,2.35.31,4.72-.33,7.04-1.56,5.6-15.52,22.21-21.21,23.92l-2.72-6.72-4,2.68-1.38-8.64c10.76-8.3,6-17.95-3.36-4.82l-1.93-.09-.12-2.51-1.96-.09c-1.16,4.27-3.61,2.38-7.36,2.83l-.06,3.91c-4.44,1.24-3.55-3.64-8.03-2.73l-.02-3.94c.23-.36,4.24-.85,5.36-1.4,4.36-2.13,6.59-4.57,10.77-6.73l10.76,2.69v-6.72c-1.94-.52-2.67.74-4.03,1.34-7.39-1.94-7.44-8.73-10.13-12.08-3.57-4.45-4.79.79-5.65,1.28-2.9,1.65-6.54,3.3-9.8,4.09-1.06,1.41,3.04,5.16,4.04,6.71-7.88,4.5-12.36,10.54-21.51,3.29l-6.75-12.69,5.96-2.7,6.14,5.36c-1.15-9.75-2.16-8.53-10.62-9.57,1.05-5.28-1.49-8.7-2.44-12.83-.74-3.22,1.21-.76-1.3-4.85-1.88-3.06,2.34-7.67-4.48-6.39-.15-.83.16-1.87,0-2.69h2.68s0-2.69,0-2.69h-4.03c-.91-4.5-1.64-9-2.69-13.47-29.31-123.88-110.81-254.18-247.7-273.28.79-4-1.94-2.45-4.46-2.88-24.35-4.11-56.33-.31-80.12,6.47-2.18.62-4.78.38-5.62,3.14-.44.05-.9-.04-1.35,0-1.78.16-3.62-.14-5.4.03.08.72,1.34,1.13,1.36,1.32.08.57-.22,1-.7,1.29l-41.83,17.49c-9.61-1.77-18.41-6.06-27.48-9.35,3.38-6.19,8.72-12.96,13.43-18.21,6.26-6.98,26.04-27.12,33.69-30.25,51.67-21.12,126.93-34.47,181.81-23.63,16.98,3.36,53.07,20.18,65.93,2.43,4.49-6.2,3.36-15.5-1.36-21.25-1.12-1.37-6.56-8.12-7.03-8.44-1.55-1.07-9.56-2.39-11.84-5.66ZM327.48,55.83c-3.8-11.29-10.33-7.86-18.79-3.95,2.64,13.65,9.57,9.92,18.79,3.95ZM397.42,54.58l-17.42,1.29c1.21,5.47,5.67,8.39,4.04,14.8,6.27.4,9.47-6.59,16.16-5.39l-2.77-10.7ZM261.52,69.34l-16.22-3.49-1.27,12.89c10.59,1.54,16.21,3.62,17.48-9.39ZM471.53,94.89c-3.12-5.47-2.9-11.37-2.71-17.49-5.98,4.06-11.68,4.64-18.83,4.05l2.7,14.8,18.83-1.36ZM534.79,123.17c-7.38,2.71-13.15.97-20.18-1.35l-4.04,20.19c7.94-1.28,13.29-3.34,21.53-1.33-.68-6.59.26-11.51,2.69-17.5ZM584.61,186.45l-16.75-5.35c-1.48,2.52-8.63,17.61-7.49,18.8,8.86-1.15,14.31.74,21.53,5.39-1.08-7.06,1.18-12.29,2.71-18.84ZM626.34,259.15c-4.41,2.11-15.96-10.9-17.49-9.44l-6.65,14,16.48,7.38c2.18-1.35,9.33-10.05,7.66-11.95ZM638.44,321.06c-3.04-.55-2.14.14-2.99,1.71-3.29,6.09-3.06,11.34-11.8,13.76,8.16,3.45,11.66,9.41,18.13,14.14l10.13-17.49c-6.21-1.33-12.53-5.33-13.48-12.13Z"/>
        <path class="cls-14" d="M660,119.13c-.2-11.77,5.31-4.39,11.47-2.74,18.48,11.25,63.74,57.03,79.51,59.16,9.54,1.29,17.89.1,23.45-7.95,10.96,15.01,31.54,39.71,32.21,58.76.99,28.39-43.25,69.11-67.21,81.24-7.14-25.45-17.76-51.69-26.92-76.73-10.86-29.69-30.39-90.07-52.5-111.73Z"/>
        <path class="cls-10" d="M672.11,527.03l-8.48,1.22-11.05-7.92-2.01,2.65,2.69,1.34-5.32.08-1.48,7.97c-5.28-1.41-7.4,1.41-12.03-2.67-.21-2.45,2.27.07,2.73-3.26.37-2.64.49-4.09-2.72-3.41-5.11,5.68-.38,12.43-5.38,18.25l-1.81.42c-5.13-4.44-6.37-.26-11.67.14v-9.42c6.06-1.68,4.82,2.82,8.71,4.03l4.78-6.03c.04-.86-7.08-3.37-5.38-6.03.14-.23,4.08-3.07,4.33-3.17,2.66-1.04,5.9,2.56,5.06-2.25l-7.45-1.33.49,2.52c-6.45-1.22-2.44,8.58-9.7,8.26-1.43-.06-3.44-8.58-8.9-4.09-1.68-6.87,6.18-3.19,5.37-8.06-3.33-.3-10.74-4.15-9.43-8.08l-5.36,4.02-.2-5.26-5.2-2.82c22.12-12.1,43.31-23.81,63.27-39.04,4.5-3.44,13.21-7.13,14.81-13.46.38-.14.92.13,1.35,0,5.69-1.71,19.65-18.32,21.21-23.92.64-2.32.38-4.69.33-7.04,2.82.45,4.27-1.18,6.35-2.39,15.74-9.2,28.9-18.99,42.11-31.26,4.05-3.76,8.89-6.69,12.12-12.12,4.95,25.35,11.16,46.81,4.98,72.97-8.67,36.71-54.95,64.31-87.1,79.15ZM643.17,520.3v1.35c.87-.45.87-.9,0-1.35ZM641.49,522.96c0-.92-.74-1.66-1.66-1.66s-1.66.74-1.66,1.66.74,1.66,1.66,1.66,1.66-.74,1.66-1.66Z"/>
        <path class="cls-6" d="M464.8.67c2.28,3.27,10.29,4.58,11.84,5.66.47.32,5.91,7.07,7.03,8.44,4.72,5.75,5.85,15.05,1.36,21.25-12.86,17.74-48.95.92-65.93-2.43-54.88-10.84-130.14,2.5-181.81,23.63,3.8-5.25,10.7-9.23,16.27-12.68C316.57,5.55,392.47-2.64,464.8.67Z"/>
        <path class="cls-6" d="M660,119.13c22.12,21.67,41.64,82.04,52.5,111.73l-11.21,8.31c-55.05,24.75-66.9-24.34-89.2-59.34-5.34-8.38-12.88-18.84-18.84-26.93-10.45-14.18-27.7-22.03-10.02-39.87,20.7-20.88,57.49-12.79,76.77,6.09Z"/>
        <path class="cls-5" d="M607.49,380.29c6.82-1.28,2.6,3.33,4.48,6.39,2.51,4.09.56,1.62,1.3,4.85.95,4.14,3.49,7.55,2.44,12.83,8.45,1.05,9.47-.17,10.62,9.57l-6.14-5.36-5.96,2.7,6.75,12.69c9.15,7.25,13.63,1.21,21.51-3.29,1.91,2.97,5.14,4.7,4.04,9.42-1.12.55-5.13,1.04-5.36,1.4l.02,3.94c4.48-.91,3.59,3.97,8.03,2.73l.06-3.91c3.75-.45,6.2,1.44,7.36-2.83l1.96.09.12,2.51,1.93.09c9.36-13.13,14.12-3.48,3.36,4.82l1.38,8.64,4-2.68,2.72,6.72c-.43.13-.97-.14-1.35,0-2.87,1.09-4.69,2.59-4.99,2.67-1.69.41-4.63-.57-5.6.22-.44.36-4.24,8.93-4.22,10.58-19.96,15.23-41.15,26.94-63.27,39.04-3.3,1.8-7.73.12-9.42,5.38-10.2.67-40.99,18.25-52.53,23.53-31.5,14.42-63.25,28.2-93.56,45.1-1.84.42-2.54-.1-1.97-1.97,2.08-6.95,18.59-22.98,21.52-31.66,10.83-5.17,21.88-10.97,32.31-16.15,30.1-14.98,53.56-26.9,80.77-47.12,16.64-12.37,30.13-20.59,39.04-40.39,8.86-19.69,2.56-39.39-1.35-60.58Z"/>
        <path class="cls-6" d="M693.65,420.68c-.46-20.53-11.61-46.73-11.99-66.82-.17-8.83,14.35-12.03,21.77-10.93,10.72,1.59,28.1,14.45,34.14,23.73,4.72,7.25,5.3,11.55,4.54,20.36-13.21,12.27-26.37,22.06-42.11,31.26-2.08,1.22-3.53,2.84-6.35,2.39Z"/>
        <path class="cls-3" d="M638.44,321.06c.95,6.8,7.27,10.8,13.48,12.13l-10.13,17.49c-6.48-4.73-9.97-10.69-18.13-14.14,8.74-2.42,8.5-7.67,11.8-13.76.85-1.57-.05-2.26,2.99-1.71Z"/>
        <path class="cls-3" d="M584.61,186.45c-1.53,6.55-3.8,11.78-2.71,18.84-7.22-4.65-12.67-6.54-21.53-5.39-1.14-1.19,6.01-16.28,7.49-18.8l16.75,5.35Z"/>
        <path class="cls-3" d="M534.79,123.17c-2.43,5.99-3.37,10.91-2.69,17.5-8.24-2.01-13.59.05-21.53,1.33l4.04-20.19c7.03,2.33,12.8,4.07,20.18,1.35Z"/>
        <path class="cls-3" d="M626.34,259.15c1.67,1.9-5.48,10.6-7.66,11.95l-16.48-7.38,6.65-14c1.53-1.46,13.08,11.54,17.49,9.44Z"/>
        <path class="cls-3" d="M664.03,420.68c-2.15.94-5.28,1.94-6.73,2.69-4.18,2.16-6.41,4.6-10.77,6.73,1.1-4.72-2.13-6.45-4.04-9.42-1-1.55-5.09-5.31-4.04-6.71,3.26-.8,6.9-2.44,9.8-4.09.86-.49,2.08-5.73,5.65-1.28,2.69,3.35,2.74,10.15,10.13,12.08Z"/>
        <path class="cls-3" d="M471.53,94.89l-18.83,1.36-2.7-14.8c7.15.59,12.85.01,18.83-4.05-.19,6.11-.42,12.02,2.71,17.49Z"/>
        <path class="cls-3" d="M397.42,54.58l2.77,10.7c-6.69-1.2-9.88,5.79-16.16,5.39,1.63-6.41-2.83-9.33-4.04-14.8l17.42-1.29Z"/>
        <path class="cls-3" d="M261.52,69.34c-1.27,13.01-6.9,10.93-17.48,9.39l1.27-12.89,16.22,3.49Z"/>
        <path class="cls-6" d="M265.56,94.9c.83-2.75,3.43-2.52,5.62-3.14,23.79-6.79,55.78-10.58,80.12-6.47,2.52.43,5.24-1.12,4.46,2.88-8.62-1.2-19.68-2.74-28.27-2.69-22.16.13-41.12,6.89-61.93,9.42Z"/>
        <path class="cls-3" d="M327.48,55.83c-9.22,5.97-16.15,9.69-18.79-3.95,8.47-3.91,14.99-7.34,18.79,3.95Z"/>
        <path class="cls-5" d="M664.03,420.68c1.36-.6,2.09-1.86,4.03-1.34v6.72s-10.76-2.69-10.76-2.69c1.45-.75,4.59-1.75,6.73-2.69Z"/>
        <path class="cls-5" d="M606.15,374.91h4.03s0,2.69,0,2.69h-2.68c-.08-.41-1.1-1.45-1.35-2.69Z"/>
        <path class="cls-6" d="M264.21,94.9l-4.04,1.35c-.03-.19-1.28-.6-1.36-1.32,1.78-.16,3.63.13,5.4-.03Z"/>
        <path class="cls-14" d="M599.41,541.85c1.35,3.39-5.23,8.52-5.36,9.05-.97,4.18,1.97,6.64-5.4,7.09l2.66-5.36c-2.9,1.08-6.01-7.56-5.36-8.09,5.71.81,6.54-4.75,13.46-2.69Z"/>
        <polygon class="cls-10" points="611.53 527.04 611.53 529.7 604.81 531.06 604.79 527.04 611.53 527.04"/>
        <path class="cls-10" d="M602.1,528.37l-5.24-1.48-.13-3.89h1.99c1.59,1.65,3.88,2.79,3.38,5.37Z"/>
        <polygon class="cls-10" points="598.07 513.58 595.98 516.2 593.43 516.2 591.35 514.22 591.35 512.23 598.07 513.58"/>
        <path class="cls-10" d="M583.26,509.53c2.62-.17,7.94-1.36,6.74,2.69l-7.43,1.32c-.23-.86.42-3.16.69-4.01Z"/>
        <path class="cls-10" d="M610.86,533.76c.87.45.87.9,0,1.35v-1.35Z"/>
        <path class="cls-10" d="M613.55,544.53c.87.45.87.9,0,1.35v-1.35Z"/>
        <path class="cls-14" d="M600.09,547.22c.87.45.87.9,0,1.35v-1.35Z"/>
        <path class="cls-4" d="M670.76,451.64c-1.6,6.34-10.31,10.03-14.81,13.46-.03-1.64,3.78-10.22,4.22-10.58.96-.78,3.9.2,5.6-.22.31-.08,2.13-1.58,4.99-2.67Z"/>
        <circle class="cls-12" cx="639.83" cy="522.96" r="1.66"/>
        <path class="cls-12" d="M643.17,520.3c.87.45.87.9,0,1.35v-1.35Z"/>
        <path class="cls-18" d="M569.8,481.26c-27.21,20.22-50.68,32.14-80.77,47.12,3.05-10.03,2.83-20.59,2.69-30.96,11.92-6.05,34.87-19.58,44.42-28.27l33.65,12.12Z"/>
      </g>
      <g>
        <path class="cls-12" d="M209.02,461.07c5.26,4.73,12.12,9.16,17.5,13.46,1.2.96,2.86,4.49,4.04,5.38,1.91,7.23-.33,12.19-2.7,18.84,4.2-1.99,5.84,2.62,6.21,2.64,15.8,1.19,63.32,28.07,82.4,35.96s69.05,28.52,87.74,30.05c2.78.23,5.39.11,8.11-.63,9.22-2.52,33.48-17.04,44.4-22.25-2.93,8.68-19.43,24.71-21.52,31.66-.56,1.88.13,2.4,1.97,1.97,30.31-16.9,62.06-30.68,93.56-45.1,11.54-5.28,42.33-22.87,52.53-23.53-.27.85-.92,3.15-.69,4.01l7.43-1.32c1.2-4.04-4.12-2.86-6.74-2.69,1.69-5.26,6.13-3.58,9.42-5.38l5.2,2.82.2,5.26,5.36-4.02c-1.31,3.93,6.1,7.77,9.43,8.08.81,4.87-7.06,1.19-5.37,8.06,5.46-4.49,7.47,4.02,8.9,4.09,7.26.31,3.25-9.48,9.7-8.26l-.49-2.52,7.45,1.33c.84,4.81-2.4,1.2-5.06,2.25-.25.1-4.18,2.94-4.33,3.17-1.7,2.67,5.42,5.17,5.38,6.03l-4.78,6.03c-3.89-1.21-2.65-5.71-8.71-4.03v9.42c5.3-.4,6.54-4.58,11.67-.14l1.81-.42c5.01-5.82.27-12.57,5.38-18.25,3.22-.68,3.09.77,2.72,3.41-.46,3.33-2.95.81-2.73,3.26,4.63,4.09,6.75,1.26,12.03,2.67l1.48-7.97,5.32-.08-2.69-1.34,2.01-2.65,11.05,7.92,8.48-1.22c-12.04,5.56-25.09,10.58-37.69,14.82l24.23,36.33-21.57-10.07c-45.05-13.36-114.21-11.21-150.76,21.5-6.75,6.04-12.04,14.72-18.83,20.88-15.33-5.92-32.96-5.58-48.85-2.89-2.98-.88-7.84-10.89-10.41-13.91-18.17-21.4-43.88-28.11-71.32-26.28l-12.48-1.66-47.27-14.42c-1.54.47-5.41,12.89-4.87,13.38.6.54,4.84-1.46,5.33,4.82l-2.64,1.22c3.15,2.67,0,5.95,4.06,6.76l-5.4,2.02c-40.47-3.46-71.75,27.01-70,67.31-6.33,1.02-12.81,4.81-18.41,7.85-15.89,8.62-47.08,28.1-54.29,44.66-45.52-12.58-99.24-30.67-118.47-78.08,14.47,15.76,50.69,18.82,70,12.12,37.64-13.07,78.5-74.88,97.85-108.72,3.54-6.19,8.79-13.69,11.26-21.13.81-2.45,1.54-4.83,1.28-7.46,13.23-3.41,16.9-20,14.75-31.59-.46-2.47-3.15-3.84,1.41-3.41ZM598.07,513.58l-6.72-1.36v1.99s2.08,1.98,2.08,1.98h2.55s2.09-2.62,2.09-2.62ZM250.74,536.47l-35.53-16.06c-1.78.42-12.76,18.85-11.57,20.08l47.1-4.02ZM602.1,528.37c.51-2.58-1.79-3.72-3.38-5.37h-1.99s.13,3.88.13,3.88l5.24,1.48ZM611.53,527.04h-6.73s.01,4.02.01,4.02l6.72-1.36v-2.66ZM610.86,533.76v1.35c.87-.45.87-.9,0-1.35ZM599.41,541.85c-6.92-2.06-7.75,3.5-13.46,2.69-.65.54,2.46,9.17,5.36,8.09l-2.66,5.36c7.37-.45,4.43-2.92,5.4-7.09.12-.53,6.71-5.66,5.36-9.05ZM613.55,544.53v1.35c.87-.45.87-.9,0-1.35ZM600.09,547.22v1.35c.87-.45.87-.9,0-1.35Z"/>
        <path class="cls-1" d="M114.78,377.6c-1.74,2.27-4.64,4.33-5.38,5.38-4.89,2.21-9.66.7-14.7,3.48-9.43,5.2-11.77,19.82-10.88,29.52.22,2.37,1.44,10.88,5.39,10.09.1,13.11,26.59,38.26,37.28,45.51,12.21,8.28,22.1,9.88,34.07,15.06.77.33,4.48,4.36,7.17,5.63,7.04,3.33,17.52,5.76,25.14,3.8.26,2.63-.46,5.01-1.28,7.46-2.47,7.44-7.72,14.95-11.26,21.13-19.35,33.84-60.21,95.65-97.85,108.72,10.37-23.4-2.61-37.95-25.58-41.75,28.64-38.31,2.2-86.89-43.08-90.18,11.71-38.36,30.99-83,61.22-110.42,12.64-11.47,21.94-16.58,39.75-13.43ZM69.01,442.22h-18.85c2.18,5.78,1.14,10.36,0,16.15l15.38.03,3.46-16.18ZM109.39,482.61c-9.04,2.01-14.12,5.29-21.52-2.7-1.06,5.24,1.74,10.51,1.42,15.46-.3,4.65-3.71,7.15-4.12,11.46,5.36.49,8.53-3.29,14.14-2.79,4.39.39,5.97,4.04,10.08,4.14.06-5.48-4.22-8.35-4.18-14.15.04-5.43,3.65-6.72,4.18-11.42ZM153.82,516.26l-17.47,8.75c4.6,3.66,7.01,8.11,6.71,14.14l17.49-6.76c-.66-6.2-8.14-9.15-6.74-16.14Z"/>
        <path class="cls-29" d="M13.82,501.45c45.28,3.29,71.72,51.87,43.08,90.18,22.97,3.79,35.95,18.35,25.58,41.75-19.31,6.71-55.53,3.64-70-12.12-3.95-4.3-8.84-19.4-10.15-25.52-6.72-31.33,2.39-64.45,11.5-94.29Z"/>
        <path class="cls-10" d="M149.79,288.75c.31,2.8-.38,5.88.02,8.71,1.89,13.2,6.2,25.96,10.75,38.4-5.72,3.63-12.18,7.96-17.5,12.12.24-6.47-.35-13.03.01-19.51.8-14.32,3.36-29.81,5.37-43.77-.69,1.59,1.29,3.53,1.35,4.04Z"/>
        <path class="cls-18" d="M230.56,479.91c26.55,20.12,49.66,26.1,79.75,36.45,1.45.5.89,4.81,7,1.19,1.55,5.15,4.38,1.56,7.94,1.9,22.8,2.23,43.31,6.26,66.86,4.89l12.12,43.08c-18.69-1.54-68.32-22.01-87.74-30.05s-66.6-34.77-82.4-35.96c-.38-.03-2.01-4.63-6.21-2.64,2.37-6.65,4.61-11.61,2.7-18.84Z"/>
        <path class="cls-18" d="M187.48,452.99c.79.61,7.74,3.85,8.85,4.01,3.12.45,9.41-1.49,9.81-1.2.51.38,1.53,4.05,2.88,5.27-4.56-.43-1.87.95-1.41,3.41,2.15,11.58-1.51,28.18-14.75,31.59-7.62,1.96-18.1-.47-25.14-3.8-2.68-1.27-6.4-5.29-7.17-5.63,11.79-9.42,22.38-18.57,26.92-33.65Z"/>
        <path class="cls-18" d="M89.21,426.06c-3.95.8-5.17-7.72-5.39-10.09-.89-9.69,1.46-24.32,10.88-29.52,5.04-2.78,9.8-1.27,14.7-3.48-5.33,7.56-20.26,34.72-20.19,43.08Z"/>
        <path class="cls-18" d="M336.91,567.42c-16.9,1.13-31.1,6.33-43.81,17.54-6.65-1.75-12.4-4.82-19.47-5.43l5.4-2.02c-4.07-.81-.92-4.09-4.06-6.76l2.64-1.22c-.49-6.28-4.73-4.28-5.33-4.82-.54-.48,3.33-12.9,4.87-13.38l47.27,14.42,12.48,1.66Z"/>
        <path class="cls-9" d="M250.74,536.47l-47.1,4.02c-1.19-1.23,9.79-19.66,11.57-20.08l35.53,16.06Z"/>
        <path class="cls-3" d="M109.39,482.61c-.53,4.7-4.14,5.98-4.18,11.42-.04,5.8,4.24,8.66,4.18,14.15-4.11-.1-5.69-3.75-10.08-4.14-5.61-.5-8.78,3.28-14.14,2.79.41-4.31,3.83-6.81,4.12-11.46.31-4.94-2.48-10.21-1.42-15.46,7.4,7.99,12.48,4.71,21.52,2.7Z"/>
        <path class="cls-3" d="M153.82,516.26c-1.4,6.99,6.07,9.94,6.74,16.14l-17.49,6.76c.3-6.04-2.12-10.49-6.71-14.14l17.47-8.75Z"/>
        <path class="cls-3" d="M69.01,442.22l-3.46,16.18-15.38-.03c1.14-5.79,2.17-10.37,0-16.15h18.85Z"/>
        <g>
          <path class="cls-19" d="M190.17,105.67c9.06,3.29,17.87,7.58,27.48,9.35l41.83-17.49c.48-.28.78-.71.7-1.29l4.04-1.35c.45-.04.91.05,1.35,0,20.8-2.53,39.77-9.29,61.93-9.42,32.21,10.49,63,24.49,91.96,41.99,38.93,23.53,66.65,53.66,91.15,91.93,10.61,16.58,25.31,42.32,32.54,60.4,1.32,3.3,1.24,1.34-1.61,3.57-38.87-9.61-78.08-45.24-102.27-76.1-3.93-5.02-21.74-33.36-23.61-34.28-2-.98-4.95,7.06-5.86,8.93-12.58,25.8-24.54,51.97-36.24,78.18-7.13,10.19-25.03-.08-33.5-4.77-32.15-17.8-51.63-46.71-59.68-82.35-3.15-2.89-12.31,17.18-13.68,19.29-20.57,31.58-41.22,50.06-76.5,62.83-4.26,1.54-2.83,1.89-8.07,3.31-10.31,2.8-20.32,4.95-30.97,6.11-11.55,1.26-32.68.99-43.65-2.79-5.6-1.93-8.05-6.51-7.23-12.33.93-6.68,16.72-29.76,21.52-36.46,9.48-13.22,20.34-25.34,32.03-36.6-15.28-7.87-27.02-22.45-32.65-38.67-2.45-7.05-3.32-14.05-5.02-21.23.48-9.81-.35-19.79,0-29.62,1.82-2.56,7.69-6.84,11.09-5.11,21.22,7.39,41.85,16.3,62.95,23.96Z"/>
          <path class="cls-27" d="M187.48,283.37c-.7,11.63-.52,23.38-1.35,35-.03-.3-1.33-1.48-1.4-3.26-.34-8.75.37-17.6.04-26.35-2.3-.22-1.06,2.92-3.54,3.83-5.53,2.01-12.58-1.06-17.3,4.27-2.66.37-1.2-2.7-4-2.87-3.1-.19-5.84,1.03-8.78,1.5l-.02-4.51,2.71-1.55-4.05-.66c-.06-.5-2.04-2.45-1.35-4.04.96-6.69,2.42-13.4,2.69-20.19,10.65-1.16,20.65-3.31,30.97-6.11,5.24-1.42,3.81-1.77,8.07-3.31-1.47,9.46-2.12,18.71-2.69,28.27Z"/>
          <path class="cls-16" d="M355.75,88.17c136.89,19.1,218.39,149.4,247.7,273.28-9.98,2.01-19.32,7.52-28.27,12.12-5.05,2.59-9.58,5.95-14.81,8.08-1.31-23.76-2.71-47.59-4.04-71.35-.02-.45.03-.9,0-1.35-.33-5.41,1.24-19.22-2.01-22.9-1.98-2.24-9.72-1.92-12.8-2.68,2.84-2.23,2.93-.27,1.61-3.57-7.23-18.08-21.93-43.83-32.54-60.4-24.5-38.27-52.22-68.4-91.15-91.93-28.96-17.5-59.74-31.5-91.96-41.99,8.59-.05,19.65,1.49,28.27,2.69Z"/>
          <path class="cls-16" d="M149.79,288.75l4.05.66-2.71,1.55.02,4.51c2.95-.46,5.69-1.69,8.78-1.5,2.8.18,1.34,3.24,4,2.87,4.72-5.33,11.77-2.25,17.3-4.27,2.49-.91,1.25-4.04,3.54-3.83.33,8.75-.38,17.6-.04,26.35.07,1.78,1.37,2.96,1.4,3.26.16,1.56.03,3.17.02,4.74.1,1.18-.49,1.47-1.37,1.99v-5.38s-1.33,0-1.33,0c.98,3.75-2.33,4.6-5.4,6.72-5.46,3.77-11.76,5.78-17.5,9.42-4.55-12.45-8.86-25.2-10.75-38.4-.41-2.83.29-5.92-.02-8.71Z"/>
          <g>
            <path class="cls-25" d="M394.79,248.37l54.1,31.42c10.34,4.08,22.92-11.67,13.9-19.32l-57.22-32.3c7.14-4.09,11.06-12.03,18.19-16.13.92,1.02-.49,1.83.57,3.34,18.94,27.08,57.93,58.75,87.6,73.36-4.8,4.73,2.15,6.05,3.15,8.39.43,1.02,4.01,18.46,7.61,14.49v-8.06c3.15-.69,2.18.42,3.03,1.72,4.99,7.62-.47,8.79-3.25,15.61-5.08.29-11.91-1.91-10.61-8.46.07-.36,7.85-3.01-.61-3.53-1.94,7.05-3.93,4.95-7.69,6.88-1.93.99-.17,4.13-5.08,1.23l-.02,5.4h-4.03s-.01-5.39-.01-5.39c-3.64-.76-3.45,3.48-5.42,4.66-2.17,1.29-6.18.82-8.69,2.08-3.88-2.44,4.11-4.98,1.99-6.74-1.18-.99-4.11,1.84-5.35,2.08-5.62,1.1-9.28-2.43-5.17,8.45,9.31,1.44,26.31,2.92,19.96,16.38,1.56-4.02-1.31-10.39-5.12-12.05-6.8-2.96-27.76-5.48-36.71-7.43-1.86-.4-3.39-1.95-3.94-2.06.77.17,1.82-.09,2.68,0l-2.73-6.05,2.73-3.36h-9.41c-1.1-4.39,2.87-1.62,4.16-3.49.76-1.12,1.74-6.74,1.21-7.28-10.13-.9-9.56,7.84-11.98,15.38.31,1.19,11.24,4.34,13.33,4.81-1.89-.41-4.83.49-6.99-.37l-43.29-9.15c-7.44,7.84-4.55,14.36,1.82,21.64-6.6-1.89-5.2-8.11-7-9.19-1.07-.64-2.98.12-4.1-.26-1.69-.57-.09-3.78-3.69-2.67-2.25,3.18,1.68,14.07-2.07,14.81-5.39,1.07-4.99-8.88-11.43-7.4-3.98-9.07-3.71,5.22-8.81-4.53l-8.66-.18c-1.11,6.86,3.72,7.81,8.07,10.77v4.03s-2.67-.02-2.67-.02c.3-3.32-1.56-2.15-2.72-2.67-.33-.15-.67-1.97-2.68-1.35l-2.72,10.77c-3.76.76-2.62-1.39-2.68-4.05-1.55-.51-3.27,1.3-4.03,1.35-5.74.39-7.46-6.2-17.55-3.4-16.24,4.51-25.66,24.08-3.74,29.41,10.92,2.65,13.43-1.33,21.29-1.77-.08-4.3,2.35-6.2,2.69-8.08h2.69s0,9.42,0,9.42c-.55.62-4.17-1.41-5.38-1.34.05,3.09,5.13,3.86,1.34,10.75,6.25,1.63,8.1,6.93,16.13,6.81l-.04,3.88-5.31,2.78,12,1.26c.34-7.17,7.11-5.34,12.67-8.27,2.19-1.16,2.4-5.76,6.08-3.49.39.24,5.26,6.98,5.37,7.42.99,3.95.29,4.16,2.25,9.89,1.11,3.25-1.8,3.61,2.01,9.36-6.47-4.03-19.03-9.99-26.33-12.04-75.55-21.26-86.42,93.76-8.68,106.28,17.09,2.75,42.55,2.48,57.89-6.73-3.83,5.17-12.21,2.3-8.24,11.35-.54,2.8-6.59.93-5.21,4.11,1.22,2.8,9.47.83,12.04,2.11l.03,4.38,6.76.94c-10.13,2.05-20.37,4.77-30.96,5.38-23.55,1.38-44.06-2.66-66.86-4.89-3.55-.35-6.39,3.25-7.94-1.9-6.1,3.62-5.54-.69-7-1.19-30.09-10.34-53.21-16.33-79.75-36.45-1.18-.89-2.83-4.42-4.04-5.38l35.24-56.97c12.26-25.08,26.68-57.45-1.59-77.65,4.83-1.02,25.51-6.42,28.38-8.64,4.76-3.69,6.37-15.98.57-19.28l-47.81,11.78,16.16,16.15c2.9,6.99,13.48,28.67,3.62,32.68-7.08,2.88-7.96-6.31-11.13-11.03-8.35-12.44-15.07-16.13-24.67-25.14-4.73-4.43-8.82-13.86-16.87-12.69-1.76.25-4.3,1.86-4.59,3.59-1.26,7.52,16.09,17.77,21.36,22.68,16.57,15.45,37.09,39.07,11.23,57.03-10.5,2.03-36.03-50.83-54.32-45.57-.14,1.93-.07,3.81.32,5.73,1.41,6.76,15.13,22.73,20.51,27.96,14.14,13.76,30.08,14.92,13.94,36.76-1.85,2.5-9.87,11.43-12.29,11.41-12.19-.09-24.55-30.9-35.3-30.81-10.79.09-3.17,11.52-.16,16.45,2.18,3.58,15.92,22.15,18.36,24.04-4.54,15.08-15.14,24.23-26.92,33.65-11.97-5.19-21.87-6.79-34.07-15.06-10.69-7.25-37.18-32.41-37.28-45.51-.06-8.36,14.86-35.52,20.19-43.08.74-1.05,3.65-3.12,5.38-5.38,9.04-11.8,16.48-20.41,28.27-29.62,5.32-4.15,11.78-8.49,17.5-12.12,5.74-3.64,12.04-5.66,17.5-9.42,1.84-.34,5.29-.49,6.73-1.35.88-.52,1.46-.81,1.37-1.99.01-1.57.14-3.18-.02-4.74.83-11.62.65-23.37,1.35-35l3.34,6.71c11.08-9.62,27.86-16.12,34.35-29.6,1.23,1.96,12.02,5.67,14.87,3.43,10.83-8.87,32.83-16.02,42.37-24.94,5.19-4.85,2.93-12.95-.88-18.03-1.86-2.47-3.89-2.38-5.2-3.54-.35-.31.76-2.83-.69-2.7l-2,.02,1.35,2.68c-7.97,4.87-17.65,8.9-25.58,13.46,8.04-2.28,14.06-23.34,21.99-21.63l3.56,4.11,4.72-5.37c6.31,2.5,14.21,19.24,18.94,25.5,12.55,16.61,31.03,33.85,49.69,43.2,7.85,3.93,15.12,7.22,23.91,3.65,5.4-2.19,22.64-25.9,22.56-31.95ZM503.77,292.83c-2.59.08-7.66.19-6.67,3.99l8.08,1.35-1.41-5.34ZM427.1,312.99h-8.79c.41-2.9.8-5.7-3.32-5.39-.3,9.01,4.17,9.55,12.11,9.41v-4.02ZM465.94,315.52c1.1-1.54-.74-2.92-1.82-3.86-3.57,3.79-8.16,8-4.39,13.14l7.75,1.64v-8.06s-4.04,0-4.04,0c-1.27-3.63,2.1-2.29,2.49-2.84ZM431.13,317.04h-2.68v1.32h2.68v-1.32ZM404.21,504.16h-2.68v1.32h2.68v-1.32ZM401.52,506.84c-1.35-1.37-5.4,2.63-4.02,4.02s5.4-2.63,4.02-4.02Z"/>
            <path class="cls-7" d="M603.45,361.45c1.06,4.47,1.78,8.97,2.69,13.46.25,1.24,1.27,2.27,1.35,2.69.16.83-.15,1.86,0,2.69,3.91,21.19,10.2,40.89,1.35,60.58-4.01.66-8.16,2-12.12,2.69h-12.12s-2.85-36.86-2.85-36.86l-6.57-33.14c8.95-4.6,18.29-10.11,28.27-12.12Z"/>
            <path class="cls-8" d="M556.34,308.95c.03.45-.02.9,0,1.35-2.23,1.4-1.34,5.11-1.37,7.39-.17,14.12,1.68,27.75,2.7,41.77.28,3.82-1.22,21.14,2.71,22.2,5.23-2.13,9.76-5.48,14.81-8.08l6.57,33.14,2.85,36.87h12.12c-4.85.84-8.76.9-13.46,1.34-5.85-1.11-15.26-2.66-20.98-2.77-1.93-.04-3,1.4-3.25,1.42-.88.07-1.92-.16-2.69,0-.07.02-.48-1.26-1.32-.76l-1.38,1.35c-1.42,1.76-1.62,4.33-2.68,6.15-3.32,5.68-9.82,14.31-14.81,18.85-9.55,8.69-32.51,22.22-44.42,28.27-14.25,7.24-34.25,15.59-49.81,18.85-1.82-2.8-6.48-1.11-8.08,1.35-.88.07-1.8-.01-2.69,0-1.27.02-4.33-2.21-6.73,1.35-.43.08-.92-.09-1.35,0l-6.76-.94-.03-4.38c-2.58-1.28-10.83.69-12.04-2.11-1.38-3.18,4.67-1.32,5.21-4.11-3.97-9.04,4.41-6.18,8.24-11.35,5.41-3.25,11.68-11.47,13.46-17.5,4.77-16.14-3.84-31.34-12.12-44.42l1.32-.66c-1.48-2.32-3.56-4.08-5.36-6.07-.42-.47-.91-.89-1.35-1.35-1.36-1.43-2.7-2.67-4.04-4.04-.84-.86-1.83-1.88-2.69-2.69-.46-.44-.87-.92-1.35-1.35-1.02-.92-1.99-2.1-2.69-2.69-2.93-2.51-4.29-4.37-8.08-6.73-3.81-5.75-.9-6.1-2.01-9.36-1.96-5.73-1.27-5.94-2.25-9.89-.11-.44-4.98-7.18-5.37-7.42-3.68-2.27-3.89,2.33-6.08,3.49-5.55,2.93-12.32,1.1-12.67,8.27l-12-1.26,5.31-2.78.04-3.88c-8.03.11-9.88-5.19-16.13-6.81,3.8-6.88-1.28-7.66-1.34-10.75,1.21-.07,4.82,1.97,5.38,1.34v-9.43s-2.68.01-2.68.01c.37-2,1.04-6.91,1.18-8.85.03-.44-5.47-2.86-3.88-7.31.76-.05,2.48-1.86,4.03-1.35.07,2.66-1.07,4.8,2.68,4.05l2.72-10.77c2.01-.62,2.35,1.2,2.68,1.35l2.7,9.43,10.76-.02c1.14-3.74-2.4-2.41-3.35-4.02-2.57-4.34,1.52-2.5-4.72-6.74-4.35-2.96-9.18-3.91-8.07-10.77l8.66.18c5.1,9.75,4.83-4.54,8.81,4.53,6.44-1.48,6.04,8.47,11.43,7.4,3.75-.74-.18-11.63,2.07-14.81,3.6-1.11,2.01,2.1,3.69,2.67,1.12.38,3.03-.38,4.1.26,1.8,1.07.41,7.3,7,9.19.41.12.93-.11,1.35,0,4.46,5.64,14.31,3.26,19.7,5.14,13.33,4.64,33.82,7.09,47.88,9.9,4.75.95,18.55,7.05,21.26,1.11.32-.7-.13-2.5.7-4.01s3.27-2.52,3.34-2.72c6.35-13.46-10.64-14.94-19.96-16.38-4.11-10.88-.45-7.35,5.17-8.45,1.24-.24,4.17-3.07,5.35-2.08,2.11,1.77-5.87,4.31-1.99,6.74,2.51-1.26,6.52-.79,8.69-2.08,1.97-1.17,1.79-5.42,5.42-4.66v5.39s4.04,0,4.04,0l.02-5.4c4.92,2.91,3.15-.23,5.08-1.23,3.76-1.93,5.75.17,7.69-6.88,8.46.51.68,3.16.61,3.53-1.3,6.55,5.53,8.75,10.61,8.46,2.79-6.82,8.24-7.99,3.25-15.61-.85-1.3.13-2.41-3.01-1.72v8.06c-3.62,3.97-7.19-13.47-7.63-14.49-1-2.34-7.95-3.65-3.15-8.39,9.89,4.87,22.56,7.65,32.25,11.51,4.55,1.81,6.63,9.11,12.18,8.69ZM364.18,384.3c0-.92-.74-1.66-1.66-1.66s-1.66.74-1.66,1.66.74,1.66,1.66,1.66,1.66-.74,1.66-1.66ZM422.06,514.89c0-.92-.74-1.66-1.66-1.66s-1.66.74-1.66,1.66.74,1.66,1.66,1.66,1.66-.74,1.66-1.66Z"/>
            <path class="cls-11" d="M190.17,255.1c35.28-12.77,55.93-31.25,76.5-62.83,1.37-2.11,10.54-22.18,13.68-19.29,8.05,35.64,27.54,64.54,59.68,82.35,8.48,4.69,26.38,14.97,33.5,4.77,11.7-26.22,23.66-52.39,36.24-78.18.91-1.87,3.86-9.92,5.86-8.93,1.87.92,19.68,29.27,23.61,34.28,24.19,30.86,63.41,66.49,102.27,76.1,3.08.76,10.82.44,12.8,2.68,3.25,3.68,1.67,17.49,2.01,22.9-5.55.42-7.63-6.88-12.18-8.69-9.69-3.85-22.35-6.63-32.25-11.51-29.66-14.61-68.65-46.28-87.6-73.36-1.06-1.51.35-2.32-.57-3.34-7.12,4.1-11.04,12.04-18.19,16.13-2.69,1.54-8.12-.24-11.09,7.07-2.53,6.21.26,8.52.32,13.12.08,6.05-17.16,29.76-22.56,31.95-8.79,3.57-16.06.28-23.91-3.65-18.67-9.35-37.14-26.59-49.69-43.2-4.73-6.26-12.63-23-18.94-25.5l-4.72,5.37-3.56-4.11c-7.94-1.72-13.95,19.34-21.99,21.63-4.93,2.84-21.56,12.13-24.24,15.46-1.2,1.49-2.62,3.43-2.59,5.4,0,.46,2.36,8.37,2.61,8.75-6.5,13.47-23.27,19.98-34.35,29.6l-3.34-6.71c.58-9.56,1.23-18.81,2.69-28.27Z"/>
            <path class="cls-24" d="M394.79,408.56c2.13,3.22,4.34,5.42,8.08,6.73.7.6,1.67,1.77,2.69,2.69l1.35,1.35c.86.82,1.85,1.84,2.69,2.69l4.04,4.04c.44.46.93.88,1.35,1.35.94,2.48,2.64,4.52,4.04,6.73,8.27,13.09,16.89,28.29,12.12,44.42-11.85-15.88-27.31-24.83-47.78-22.87s-38.86,28.6-23.57,47.1c-77.75-12.51-66.87-127.54,8.68-106.28,7.29,2.05,19.86,8.01,26.33,12.04Z"/>
            <path class="cls-7" d="M489.03,528.38c-10.43,5.19-21.48,10.99-32.31,16.15-10.91,5.21-35.18,19.74-44.4,22.25-2.72.74-5.32.86-8.11.63l-12.12-43.08c10.6-.62,20.83-3.33,30.96-5.38.43-.09.91.08,1.35,0,1.96-.38,5.58,1.06,6.73-1.35.89-.01,1.81.07,2.69,0,3.52-.28,4.9-.68,8.08-1.35,15.56-3.26,35.56-11.61,49.81-18.85.14,10.38.36,20.94-2.69,30.96Z"/>
            <path class="cls-20" d="M431.14,478.57c-1.78,6.03-8.05,14.25-13.46,17.5-15.34,9.22-40.79,9.48-57.89,6.73-15.29-18.5,2.17-45.05,23.57-47.1s35.92,6.99,47.78,22.87Z"/>
            <path class="cls-27" d="M445.95,322.41c.55.12,2.08,1.66,3.94,2.06,8.95,1.95,29.91,4.47,36.71,7.43,3.81,1.66,6.69,8.03,5.12,12.05-.08.2-2.49,1.15-3.34,2.72s-.37,3.31-.7,4.01c-3.66,1.21-7.38.17-11.02-.42-23.72-3.89-54.92-9.51-77.83-15.73-.42-.11-.93.12-1.35,0-6.37-7.28-9.26-13.8-1.82-21.64l43.29,9.15c2.16.86,5.1-.04,6.99.37Z"/>
            <path class="cls-19" d="M405.56,228.17l57.22,32.3c9.02,7.65-3.56,23.4-13.9,19.32l-54.1-31.42c-.06-4.6-2.85-6.91-.32-13.12,2.97-7.31,8.4-5.53,11.09-7.07Z"/>
            <path class="cls-19" d="M276.33,217.4c1.31,1.16,3.35,1.07,5.2,3.54,3.82,5.08,6.07,13.18.88,18.03-9.54,8.92-31.54,16.07-42.37,24.94-2.85,2.24-13.64-1.47-14.87-3.43-.24-.39-2.6-8.3-2.61-8.75-.02-1.97,1.39-3.91,2.59-5.4,2.68-3.32,19.32-12.62,24.24-15.46,7.92-4.56,17.61-8.6,25.58-13.46h1.35Z"/>
            <path class="cls-11" d="M342.29,343.95c-1.6,4.45,3.91,6.87,3.88,7.31-.14,1.94-.82,6.84-1.18,8.85-.34,1.88-2.77,3.78-2.69,8.08-7.86.44-10.37,4.42-21.29,1.77-21.92-5.33-12.5-24.9,3.74-29.41,10.08-2.8,11.81,3.8,17.55,3.4Z"/>
            <path class="cls-27" d="M260.17,339.91c-.79.17-1.83-.11-2.69,0l-16.16-16.15,47.81-11.78c5.79,3.31,4.19,15.6-.57,19.28-2.87,2.22-23.56,7.61-28.38,8.64Z"/>
            <path class="cls-8" d="M445.95,322.41c-2.09-.47-13.02-3.62-13.33-4.81,2.41-7.54,1.84-16.28,11.98-15.38.52.55-.45,6.17-1.21,7.28-1.28,1.87-5.26-.9-4.16,3.47h9.41s-2.73,3.38-2.73,3.38l2.73,6.05c-.86-.08-1.92.18-2.68,0Z"/>
            <path class="cls-8" d="M465.94,315.52c-.39.55-3.76-.79-2.49,2.84h4.05s-.01,8.07-.01,8.07l-7.75-1.64c-3.77-5.14.82-9.35,4.39-13.14,1.08.94,2.91,2.32,1.82,3.86Z"/>
            <path class="cls-13" d="M359.79,335.87c6.24,4.24,2.15,2.41,4.72,6.74.95,1.61,4.49.28,3.35,4.02l-10.76.02-2.7-9.43c1.15.51,3.01-.65,2.72,2.67l2.66.02v-4.03Z"/>
            <path class="cls-8" d="M427.1,312.99v4.02c-7.94.14-12.4-.4-12.11-9.41,4.12-.31,3.73,2.48,3.32,5.39h8.79Z"/>
            <path class="cls-8" d="M503.77,292.83l1.41,5.34-8.08-1.35c-1-3.8,4.08-3.91,6.67-3.99Z"/>
            <g>
              <path class="cls-11" d="M187.48,452.99c-2.44-1.89-16.18-20.47-18.36-24.04-3-4.93-10.63-16.36.16-16.45,10.75-.09,23.1,30.71,35.3,30.81,2.43.02,10.44-8.91,12.29-11.41,16.15-21.84.2-23-13.94-36.76-5.37-5.23-19.1-21.2-20.51-27.96-.4-1.91-.47-3.8-.32-5.73,18.3-5.26,43.82,47.6,54.32,45.57,25.86-17.96,5.34-41.58-11.23-57.03-5.26-4.91-22.62-15.16-21.36-22.68.29-1.73,2.83-3.33,4.59-3.59,8.05-1.16,12.14,8.26,16.87,12.69,9.6,9.01,16.32,12.7,24.67,25.14,3.17,4.73,4.05,13.92,11.13,11.03,9.86-4.01-.72-25.69-3.62-32.68.86-.11,1.9.17,2.69,0,28.26,20.2,13.85,52.57,1.59,77.65l-35.24,56.97c-5.38-4.3-12.25-8.74-17.5-13.46-1.35-1.22-2.37-4.89-2.88-5.27-.4-.29-6.68,1.65-9.81,1.2-1.1-.16-8.06-3.39-8.85-4.01Z"/>
              <path class="cls-27" d="M184.79,325.1c-1.45.86-4.9,1.01-6.73,1.35,3.07-2.12,6.37-2.97,5.4-6.72h1.32s.01,5.38.01,5.38Z"/>
            </g>
            <path class="cls-8" d="M401.52,506.84c1.38,1.4-2.67,5.4-4.02,4.02s2.67-5.4,4.02-4.02Z"/>
            <path class="cls-11" d="M274.98,217.4l-1.35-2.68,2-.02c1.45-.13.34,2.39.69,2.7h-1.35Z"/>
            <rect class="cls-8" x="401.53" y="504.16" width="2.68" height="1.32"/>
            <rect class="cls-8" x="428.46" y="317.04" width="2.68" height="1.32"/>
            <path class="cls-15" d="M560.38,381.64c-3.93-1.06-2.43-18.38-2.71-22.2-1.03-14.02-2.87-27.64-2.7-41.77.03-2.28-.86-5.98,1.37-7.39,1.33,23.76,2.73,47.59,4.04,71.35Z"/>
            <path class="cls-16" d="M608.84,440.87c-8.91,19.8-22.4,28.02-39.04,40.39l-33.65-12.12c4.99-4.54,11.49-13.16,14.81-18.85l5.38-6.73c.77-.16,1.81.07,2.69,0,6.81,2.42,15.05,3.07,22.24,2.65,2.14-.13,1.87-1.29,1.99-1.3,4.7-.44,8.61-.49,13.46-1.35,3.96-.7,8.11-2.03,12.12-2.69Z"/>
            <path class="cls-25" d="M487.68,350.68c-2.71,5.94-16.51-.16-21.26-1.11-14.06-2.81-34.55-5.26-47.88-9.9-5.4-1.88-15.24.5-19.7-5.14,22.91,6.22,54.11,11.84,77.83,15.73,3.64.6,7.36,1.63,11.02.42Z"/>
            <path class="cls-15" d="M583.26,444.91c-.12.01.15,1.18-1.99,1.3-7.19.42-15.42-.22-22.24-2.65.25-.02,1.32-1.46,3.25-1.42,5.72.11,15.14,1.66,20.98,2.77Z"/>
            <path class="cls-25" d="M441.91,516.26c-3.17.66-4.56,1.07-8.08,1.35,1.59-2.45,6.25-4.15,8.08-1.35Z"/>
            <path class="cls-25" d="M431.14,517.61c-1.15,2.4-4.78.96-6.73,1.35,2.4-3.56,5.46-1.33,6.73-1.35Z"/>
            <path class="cls-15" d="M556.34,443.57l-5.38,6.73c1.06-1.82,1.26-4.38,2.68-6.15l1.38-1.35c.84-.5,1.25.78,1.32.76Z"/>
            <circle class="cls-25" cx="362.51" cy="384.3" r="1.66"/>
            <path class="cls-22" d="M402.87,415.29c-3.74-1.31-5.94-3.51-8.08-6.73,3.79,2.36,5.14,4.23,8.08,6.73Z"/>
            <circle class="cls-25" cx="420.4" cy="514.89" r="1.66"/>
            <path class="cls-22" d="M419.03,434.14c-1.4-2.21-3.09-4.25-4.04-6.73,1.8,1.99,3.88,3.75,5.36,6.07l-1.32.66Z"/>
            <path class="cls-22" d="M413.64,426.06l-4.04-4.04c1.34,1.37,2.68,2.61,4.04,4.04Z"/>
            <path class="cls-22" d="M406.91,419.33l-1.35-1.35c.47.43.89.91,1.35,1.35Z"/>
          </g>
        </g>
      </g>
    </g>
  </g>
</svg>