<?xml version="1.0" encoding="UTF-8"?>
<svg id="_レイヤー_2" data-name="レイヤー 2" xmlns="http://www.w3.org/2000/svg" viewBox="0 0 1076.54 257.41">
  <defs>
    <style>
      .cls-1 {
        opacity: .4;
      }

      .cls-1, .cls-2, .cls-3, .cls-4, .cls-5 {
        fill: #5c697d;
        stroke: #fff;
        stroke-linecap: round;
        stroke-linejoin: round;
      }

      .cls-2 {
        opacity: .2;
      }

      .cls-3 {
        opacity: .8;
      }

      .cls-5 {
        opacity: .6;
      }
    </style>
  </defs>
  <g id="_02" data-name="02">
    <g>
      <polygon class="cls-2" points="1031.85 116.94 1044.31 108.62 1060.98 109.04 1076.04 98.87 1059.53 98.46 1059.65 98.38 1043.8 90.66 1074.45 18.33 1037.88 .5 989.55 33.12 963.26 36.92 940.52 52.27 906.28 35.58 888.99 47.25 855.36 50.23 809.25 81.35 832.65 92.76 844.8 84.56 856.21 90.12 870.54 80.45 859.14 74.89 875.65 63.74 890.67 71.06 875.92 81.02 905.69 78.38 909.02 80.01 898.74 120.26 966.34 107.94 1012 130.2 1037.62 130.37 1046.75 124.2 1031.85 116.94"/>
      <polyline class="cls-3" points="457.76 140.71 480.59 146.04 465.64 156.14 475.59 160.99 509.55 138.07 493.16 130.08 483.19 136.81 463.88 127.4 451.73 135.6 457.76 140.71"/>
      <polygon class="cls-3" points="560.62 178.41 539.03 192.99 570.43 208.3 601.59 187.27 577.79 175.67 560.62 178.41"/>
      <polygon class="cls-3" points="561.54 157.62 546.28 167.92 546.37 167.97 546.28 167.92 540.77 171.63 493.58 178.09 474.89 190.7 484.25 195.27 527.91 187.57 539.03 192.99 560.62 178.41 577.79 175.67 586.51 169.79 561.54 157.62"/>
      <polygon class="cls-5" points="610.17 164.42 576.08 147.81 561.54 157.62 586.51 169.79 577.79 175.67 601.59 187.27 619.86 174.93 646.42 172.43 670.95 155.88 610.17 164.42"/>
      <polygon class="cls-3" points="320.05 93.88 320.05 93.87 339.99 91.64 349.35 96.2 370.5 93.84 386 101.39 397.23 99.26 411.56 89.59 374.98 71.76 335.37 75.27 335.07 75.12 312.64 90.26 320.05 93.88"/>
      <polygon class="cls-4" points="422.9 152.33 398.3 168.94 398.9 168.87 408.85 173.72 457.76 140.71 451.73 135.6 463.88 127.4 474.47 120.25 459.55 112.98 423.38 137.38 422.9 152.33"/>
      <polygon class="cls-5" points="411.56 89.59 397.23 99.26 386 101.39 378.53 106.44 416.56 124.98 444.91 105.85 411.56 89.59"/>
      <polygon class="cls-5" points="816.99 142.1 865.17 109.58 837.86 96.27 824.57 105.24 841.74 113.61 835.92 117.53 811.34 105.55 823.39 97.42 810.51 91.15 798.47 99.28 788.32 94.33 759.24 113.96 788.9 128.41 816.99 142.1"/>
      <polygon class="cls-1" points="788.9 128.41 759.24 113.96 703.58 151.53 733.24 165.98 788.9 128.41"/>
      <polygon class="cls-2" points="480.59 146.04 457.76 140.71 408.85 173.72 443.38 168.1 446.01 169.39 465.64 156.14 480.59 146.04"/>
      <polygon class="cls-5" points="320.05 93.88 312.64 90.26 335.07 75.12 312.05 63.9 299.86 67.37 279.92 80.83 275.29 88.72 288.16 94.99 285.76 106.13 295.13 110.7 307.58 108.07 308.52 101.65 320.05 93.88"/>
      <polygon class="cls-3" points="673.6 185.68 733.24 165.98 703.58 151.53 703.2 151.34 670.95 155.88 646.42 172.43 673.6 185.68"/>
      <polygon class="cls-1" points="600.47 222.94 631.63 201.91 601.59 187.27 570.43 208.3 600.47 222.94"/>
      <polygon class="cls-4" points="384.64 170.33 374.43 177.23 362.69 177.66 355.22 182.71 354.96 187.47 359.42 188.38 392.33 184.87 408.85 173.72 398.9 168.87 384.64 170.33"/>
      <polygon class="cls-5" points="521.16 205.05 552.57 220.36 570.43 208.3 539.03 192.99 521.16 205.05"/>
      <polygon class="cls-1" points="567.4 115.57 554.52 124.26 513.14 139.82 509.55 138.07 489.45 151.63 497.5 155.55 510.49 154.1 513.6 151.99 519.21 148.21 558.45 139.22 569.74 131.68 586.13 139.67 599 130.97 567.4 115.57"/>
      <polygon class="cls-5" points="513.6 151.99 510.49 154.1 497.5 155.55 489.45 151.63 475.59 160.99 465.64 156.14 446.01 169.39 450.4 171.52 460.05 176.23 460.26 183.57 474.89 190.7 493.58 178.09 540.77 171.63 546.28 167.92 513.6 151.99"/>
      <polygon class="cls-3" points="558.45 139.22 519.21 148.21 513.6 151.99 546.28 167.92 576.08 147.81 558.45 139.22"/>
      <polygon class="cls-2" points="600.47 222.94 570.43 208.3 552.57 220.36 571.29 229.48 561.05 244.93 659.87 215.68 631.63 201.91 600.47 222.94"/>
      <polygon class="cls-4" points="521.16 205.05 507.04 214.58 532.81 227.14 546.13 224.7 552.57 220.36 521.16 205.05"/>
      <polygon class="cls-3" points="571.29 229.48 552.57 220.36 546.13 224.7 531.49 234.58 505.83 240.91 498.24 246.03 520.57 256.91 561.05 244.93 571.29 229.48"/>
      <polygon class="cls-4" points="492.29 224.53 512.77 234.51 520.87 229.05 532.81 227.14 507.04 214.58 492.29 224.53"/>
      <polygon class="cls-4" points="527.91 187.57 506.08 191.42 486.56 204.6 507.04 214.58 521.16 205.05 539.03 192.99 527.91 187.57"/>
      <polygon class="cls-2" points="816.99 142.1 788.9 128.41 733.24 165.98 770.69 184.23 826.35 146.67 816.99 142.1"/>
      <polygon class="cls-3" points="673.6 185.68 646.42 172.43 619.86 174.93 601.59 187.27 631.63 201.91 659.87 215.68 664.18 214.4 707.41 202.16 673.6 185.68"/>
      <polygon class="cls-1" points="673.6 185.68 707.41 202.16 770.69 184.23 733.24 165.98 673.6 185.68"/>
      <polygon class="cls-5" points="474.89 190.7 460.26 183.57 460.05 176.23 450.4 171.52 436.69 180.78 424.85 188.77 429.83 191.19 436.06 186.99 440.74 189.27 430.46 196.21 422.56 192.36 416.33 196.56 432.42 204.4 484.25 195.27 474.89 190.7"/>
      <polygon class="cls-1" points="386 101.39 370.5 93.84 349.35 96.2 339.99 91.64 320.05 93.87 320.05 93.88 308.52 101.65 307.58 108.07 347.37 127.47 378.53 106.44 386 101.39"/>
      <polygon class="cls-4" points="408.78 130.24 416.56 124.98 378.53 106.44 347.37 127.47 373.12 140.02 387.45 130.35 408.78 130.24"/>
      <polygon class="cls-4" points="384.64 170.33 382.43 171.83 384.64 170.33 398.3 168.94 422.9 152.33 423.38 137.38 393.19 157.76 366.22 163.81 380.48 170.76 384.64 170.33"/>
      <polygon class="cls-5" points="444.91 105.85 416.56 124.98 408.78 130.24 387.45 130.35 373.12 140.02 383.66 145.15 383.24 152.92 393.19 157.76 423.38 137.38 459.55 112.98 444.91 105.85"/>
      <polygon class="cls-5" points="354.96 187.47 355.22 182.71 362.69 177.66 374.43 177.23 384.64 170.33 380.48 170.76 366.22 163.81 349.42 167.58 331.04 179.98 331.55 192.9 337.99 196.04 350.16 194.63 359.42 188.38 354.96 187.47"/>
      <polygon class="cls-4" points="446.01 169.39 443.38 168.1 408.85 173.72 392.33 184.87 359.42 188.38 350.16 194.63 382.4 190.89 402.59 200.73 415.05 192.32 407.74 188.75 417.71 182.03 436.69 180.78 450.4 171.52 446.01 169.39"/>
      <polygon class="cls-1" points="657.16 140.12 641.43 136.8 620.87 150.68 642.83 149.8 657.16 140.12"/>
      <polygon class="cls-1" points="292.06 128.64 249.65 138.67 238.89 145.93 252.64 152.63 275.41 147.08 295.5 156.87 291.02 164.82 305.13 163.91 315.66 140.14 292.06 128.64"/>
      <polygon class="cls-3" points="315.66 140.14 326.16 133.06 313.18 126.74 316.61 124.42 298.18 115.44 269.32 121.65 250 134.69 253.22 136.26 249.65 138.67 292.06 128.64 315.66 140.14"/>
      <polygon class="cls-1" points="361.24 143.28 337.24 131.58 331.32 135.58 326.16 133.06 315.66 140.14 350.09 156.92 351.24 156.15 361.24 143.28"/>
      <polygon class="cls-3" points="305.13 163.91 323.84 162.71 330.01 165.72 340.34 163.51 350.09 156.92 315.66 140.14 305.13 163.91"/>
      <polygon class="cls-4" points="368.86 160.75 380.97 155.98 375.41 153.27 370.69 155.13 364.22 151.98 358.62 155.76 363.3 158.04 365.93 159.32 368.86 160.75"/>
      <polygon class="cls-2" points="225.66 66.09 215.23 61.01 200.18 65.27 196.43 68.03 199.55 69.55 209.08 67.43 199.11 74.16 193.49 74.32 173.35 87.92 176.27 89.34 186.83 86.52 191.71 88.9 181.22 90.31 172.71 96.05 180.12 99.67 190.8 98.35 202.54 90.43 203.33 81.17 225.66 66.09"/>
      <path class="cls-3" d="M234.99,84.28l-6.44-3.14-1.12-7.06s3.28-2.11,6.25-4.08l-4.8-2.34-3.22-1.57-22.33,15.07-.79,9.27,8-5.4,4.1,2,17.25-.65,3.12-2.1Z"/>
      <polygon class="cls-3" points="191.57 102.59 165.24 107.14 175.25 112.02 165.17 123.51 212.64 114.67 219.33 102 203.72 94.39 191.57 102.59"/>
      <path class="cls-1" d="M257.48,92.8l16.7-11.27-14.43-7.03-12.83,1.95-13.22-6.44c-2.97,1.97-6.25,4.08-6.25,4.08l1.12,7.06,6.44,3.14-3.12,2.1-17.25.65-10.9,7.36,15.6,7.61,12.75-8.27,25.4-.93Z"/>
      <polygon class="cls-2" points="165.17 123.51 175.25 112.02 165.24 107.14 143.29 110.92 111.09 132.65 118.31 136.17 132.02 126.92 135.53 128.63 109.36 146.29 115.21 149.15 147.81 143.29 165.17 123.51"/>
      <polygon class="cls-2" points="266.92 101.17 254.23 94.99 257.48 92.8 232.08 93.73 219.33 102 212.64 114.67 237.23 126.66 267.84 106.21 266.92 101.17"/>
      <polygon class="cls-1" points="165.17 123.51 147.81 143.29 236.08 127.42 237.23 126.66 212.64 114.67 165.17 123.51"/>
      <polygon class="cls-2" points="8.58 90.17 .5 95.29 3 99.04 61.59 92.83 67.82 88.63 63.25 84.23 8.58 90.17"/>
      <polygon class="cls-5" points="486.56 204.6 506.08 191.42 484.25 195.27 432.42 204.4 464.47 219.84 479.53 214.31 479.94 214.16 484.04 216.16 462.54 230.67 468.98 233.81 479.83 232.94 492.29 224.53 507.04 214.58 486.56 204.6"/>
    </g>
  </g>
</svg>