<?xml version="1.0" encoding="UTF-8"?>
<svg id="_レイヤー_2" data-name="レイヤー 2" xmlns="http://www.w3.org/2000/svg" viewBox="0 0 85 80">
  <defs>
    <style>
      .cls-1 {
        fill: #d68897;
      }

      .cls-2 {
        fill: #fff;
      }
    </style>
  </defs>
  <g id="_レイヤー_1-2" data-name="レイヤー 1">
    <path class="cls-2" d="M59.76,79.35l-11.32-30.19c-.32-.87-1.55-.87-1.87,0l-11.32,30.19c-.15.39-.52.65-.94.65H1c-.55,0-1-.45-1-1v-3c0-.55.45-1,1-1h20.18c.42,0,.79-.26.94-.65l21.5-57.33c.08-.23.08-.48,0-.7l-5.61-14.96c-.25-.65.24-1.35.94-1.35h5.36c.42,0,.79.26.94.65l1.32,3.52c.32.87,1.55.87,1.87,0l1.32-3.52c.15-.39.52-.65.94-.65h5.36c.7,0,1.18.7.94,1.35l-5.61,14.96c-.08.23-.08.48,0,.7l21.5,57.33c.15.39.52.65.94.65h10.18c.55,0,1,.45,1,1v3c0,.55-.45,1-1,1h-23.31c-.42,0-.79-.26-.94-.65Z"/>
    <path class="cls-1" d="M36.45,17.77c-3.88-2-8.36-3.02-13.09-2.72C10.92,15.85.83,25.95.05,38.38s7.54,23.08,18.95,25.89c.99.24,2.01-.29,2.37-1.24l16.04-42.77c.36-.95-.05-2.02-.96-2.49Z"/>
  </g>
</svg>