<?xml version="1.0" encoding="UTF-8"?>
<svg id="_レイヤー_2" data-name="レイヤー 2" xmlns="http://www.w3.org/2000/svg" viewBox="0 0 512 448">
  <g id="_レイヤー_1-2" data-name="レイヤー 1">
    <path fill="#ffffff" d="M64,32C64,14.3,49.7,0,32,0S0,14.3,0,32v336c0,44.2,35.8,80,80,80h400c17.7,0,32-14.3,32-32s-14.3-32-32-32H80c-8.8,0-16-7.2-16-16V32ZM470.6,118.6c12.5-12.5,12.5-32.8,0-45.3s-32.8-12.5-45.3,0l-105.3,105.4-57.4-57.4c-12.5-12.5-32.8-12.5-45.3,0l-112,112c-12.5,12.5-12.5,32.8,0,45.3s32.8,12.5,45.3,0l89.4-89.3,57.4,57.4c12.5,12.5,32.8,12.5,45.3,0l128-128-.1-.1Z"/>
  </g>
</svg>