<?xml version="1.0" encoding="UTF-8"?>
<svg id="_レイヤー_2" data-name="レイヤー 2" xmlns="http://www.w3.org/2000/svg" viewBox="0 0 512 512">
  <g id="_レイヤー_1-2" data-name="レイヤー 1">
    <path fill="#ffffff" d="M0,256C0,114.62,114.62,0,256,0s256,114.62,256,256-114.62,256-256,256S0,397.38,0,256ZM320,352c0-26.9-16.5-49.9-40-59.3V88c0-13.3-10.7-24-24-24s-24,10.7-24,24v204.7c-23.5,9.5-40,32.5-40,59.3,0,35.3,28.7,64,64,64s64-28.7,64-64ZM144,176c17.67,0,32-14.33,32-32s-14.33-32-32-32-32,14.33-32,32,14.33,32,32,32ZM128,256c0-17.67-14.33-32-32-32s-32,14.33-32,32,14.33,32,32,32,32-14.33,32-32ZM416,288c17.67,0,32-14.33,32-32s-14.33-32-32-32-32,14.33-32,32,14.33,32,32,32ZM400,144c0-17.67-14.33-32-32-32s-32,14.33-32,32,14.33,32,32,32,32-14.33,32-32Z"/>
  </g>
</svg>