<?xml version="1.0" encoding="UTF-8"?>
<svg id="_レイヤー_2" data-name="レイヤー 2" xmlns="http://www.w3.org/2000/svg" viewBox="0 0 512 512.06">
  <g id="_レイヤー_1-2" data-name="レイヤー 1">
    <path fill="#ffffff" d="M480,32.06c0-12.9-7.8-24.6-19.8-29.6s-25.7-2.2-34.9,6.9l-43.6,43.7c-48,48-113.1,75-181,75H64C28.7,128.06,0,156.76,0,192.06v96c0,35.3,28.7,64,64,64v128c0,17.7,14.3,32,32,32h64c17.7,0,32-14.3,32-32v-128h8.7c67.9,0,133,27,181,75l43.6,43.6c9.2,9.2,22.9,11.9,34.9,6.9s19.8-16.6,19.8-29.6v-147.6c18.6-8.8,32-32.5,32-60.4s-13.4-51.6-32-60.4V32.06ZM416,108.76v262.6c-58.8-53.5-135.5-83.3-215.3-83.3h-8.7v-96h8.7c79.8,0,156.5-29.8,215.3-83.3Z"/>
  </g>
</svg>