<?xml version="1.0" encoding="UTF-8"?>
<svg id="_レイヤー_2" data-name="レイヤー 2" xmlns="http://www.w3.org/2000/svg" viewBox="0 0 640 512.04">
  <g id="_レイヤー_1-2" data-name="レイヤー 1">
    <path fill="#ffffff" d="M353.8,54.14l-23.6-47.8c-3.9-8.3-16.1-8.6-20.4,0l-23.6,47.8-52.3,7.5c-9.3,1.4-13.3,12.9-6.4,19.8l38,37-9,52.1c-1.4,9.3,8.2,16.5,16.8,12.2l46.9-24.8,46.6,24.4c8.6,4.3,18.3-2.9,16.8-12.2l-9-52.1,38-36.6c6.8-6.8,2.9-18.3-6.4-19.8l-52.3-7.5h-.1ZM256,256.04c-17.7,0-32,14.3-32,32v192c0,17.7,14.3,32,32,32h128c17.7,0,32-14.3,32-32v-192c0-17.7-14.3-32-32-32h-128ZM32,320.04c-17.7,0-32,14.3-32,32v128c0,17.7,14.3,32,32,32h128c17.7,0,32-14.3,32-32v-128c0-17.7-14.3-32-32-32H32ZM448,416.04v64c0,17.7,14.3,32,32,32h128c17.7,0,32-14.3,32-32v-64c0-17.7-14.3-32-32-32h-128c-17.7,0-32,14.3-32,32Z"/>
  </g>
</svg>